<?xml version="1.0" encoding="UTF-8" standalone="no"?>
<svg xmlns="http://www.w3.org/2000/svg" width="1600" height="2000" viewBox="0 0 1200 1500" version="1.2" id="Bolt">
<g transform="translate(5.2143301e-4,-5.0243301e-4)">
<path style="fill:#ffbd78; fill-rule:evenodd; stroke:#3f3845; stroke-width:11.22760487; stroke-linecap:square; stroke-linejoin:miter; stroke-miterlimit:4" d="M 28.113281,5.613281 H 1171.8867 c 12.4649,0 22.5,10.035157 22.5,22.5 V 1471.8867 c 0,12.4649 -10.0351,22.5 -22.5,22.5 H 28.113281 c -12.464843,0 -22.5,-10.0351 -22.5,-22.5 V 28.113281 c 0,-12.464843 10.035157,-22.5 22.5,-22.5 z m 0,0" />
<path style="fill:#f5f0e1" d="m 417.53906,1423.9766 c -10.93359,-1.3555 -25.87109,-4.418 -33.79297,-6.9297 -18.57812,-5.8867 -22.54687,-10.6836 -25.16015,-30.3906 l -0.63282,-8.5586 -14.50781,0.2187 c -16.39453,-0.5391 -23.36328,-2.2851 -30.59375,-7.668 -9.01562,-6.6992 -12.4375,-15.4296 -11.70312,-29.832 1.14062,-22.2734 12.03125,-37.0273 32.3125,-43.7695 10.47265,-3.4766 18.03125,-3.5 22.92187,-0.07 6.64063,4.6601 10.27344,4.25 9.92969,-4.8243 -0.71484,-18.9492 -13.46875,-94.8554 -21.97656,-135.0585 -11.6211,-54.93 -28.96094,-120.4144 -43.32422,-163.63316 C 289.13672,957.73047 285.89062,940.25 286,912.53125 c 0.082,-21.92578 2.08594,-39.85156 7.24219,-64.73047 9.22265,-44.54687 11.19922,-48.65234 11.21875,-84.39453 0.0234,-38.4375 -2.30469,-56.34766 -10.65235,-68.91406 -6.48047,-9.76172 -9.98437,-14.90625 -44.54297,-24.85157 C 184.63672,647.96094 151.36719,633.84375 112.39453,596.93359 97.882812,583.19531 91.316406,575.41797 81.722656,560.62891 65.667969,535.86719 52.726562,504.89844 48.953125,475.94922 44.882812,444.71875 53,416.97656 68.503906,400.27734 c 8.511719,-9.16406 13,-9.62109 35.605474,-9.95703 12.60156,-0.1875 23.10546,0.17188 31.20703,1.07031 6.71875,0.7461 24.3125,2.48829 39.11328,3.8711 29.69531,2.78125 37.3125,2.54297 47.94922,-1.47266 11.35937,-3.61328 20.71484,-14.33984 46.52343,-50.03125 33.07032,-45.73437 41.83594,-57.41015 59.33203,-69.17578 17.66016,-11.87109 35.60157,-16.48047 67.14454,-21.55078 31.85156,-4.28906 81.6914,-0.66406 79.13281,-16.18359 4.48828,-12.6211 12.08594,-26.125 31.09765,-50.40235 33.72657,-43.0625 75.53516,-90.554685 89.55469,-101.722654 11.76953,-9.378906 19.69922,-11.144531 26.89063,-5.996094 7.67578,5.492188 11.92187,14.453126 13.41015,28.312498 0.47657,4.41407 -0.35156,23.70313 -0.008,42.85938 0.45703,25.09375 1.02344,35.59765 1.75391,35.28125 0.55859,-0.24219 9.11718,-4.36328 17.32422,-8.07813 30.95312,-13.99219 56.21484,-23.14844 80.50781,-29.17578 39.36719,-9.76562 52.77734,-8.21875 60.63281,7.92188 2.20703,4.53515 2.18359,6.33203 2.14844,15.03125 -0.10938,27.86328 -16.33985,76.71875 -37.48047,115.57812 -16.9375,31.14063 -38.96094,61.16016 -63.11719,87.95703 -11.17187,12.07813 -20.7539,20.71094 -45.85547,41.79688 -8.95703,7.51953 -17.91015,14.19531 -18.0664,14.82422 -0.39453,1.60156 3.30468,18.83593 9.03515,55.48437 7.04297,45.01172 7.16797,46.29297 7.19922,70.92578 0.0234,19.64453 -0.21875,23.48438 -2.03515,32.48828 -3.8086,18.88282 -6.30469,29.89844 -25.8125,60.05469 l -5.33204,11.15234 5.875,11.125 c 11.36329,15.96485 17.66407,26.52735 27.0586,45.70704 14.58203,29.75781 25.85156,57.88281 51.32031,128.07031 26.85938,74.02734 34.01563,91.13672 47.57813,113.77344 48.44921,56.37499 83.71484,66.33199 128.16015,121.19529 22.73828,25.9844 52.75391,73.0039 59.6836,124.2656 2.67968,19.8438 10.29296,66.625 8.30468,85.4649 -0.78906,7.4687 -2.82422,18.3437 -2.65625,18.5156 0.55078,0.5547 21.58985,-31.7226 25.8711,-41.7148 8.83593,-20.5899 12.61718,-35.9453 12.64062,-51.3008 0.0195,-11.2266 -1.51953,-27.5117 -11.42187,-69.2578 -2.94532,-12.418 -8.75,-30.6914 -11.0625,-40.6055 -2.32032,-9.9062 -7.64844,-30.1601 -11.83985,-45.0078 -11.70703,-41.4336 -16.65625,-66.21876 -18.12109,-90.74219 -0.56641,-9.53516 -0.48828,-10.21094 1.33984,-12.05079 1.62891,-1.63671 2.9961,-1.94531 8.6211,-1.94531 10.03515,0 26.26172,3.92188 38.85156,8.9336 13.25781,5.26953 45.28119,26.55859 64.07809,41.64449 11.9883,9.6133 35.8203,33.4102 43.7969,43.7227 10.375,13.4141 49.0078,70.9687 53.5938,79.832 6.6718,12.8985 15.5898,40.5782 19.3164,59.9532 6.6718,34.6835 4.7851,64.5039 -5.8204,92.0507 -7.496,19.4688 -27.4453,43.0508 -51.8906,61.3438 -31.8125,23.8086 -72.1797,39.6172 -111.31638,42.5898 -19.8164,-0.7695 -40.57422,-1.3359 -59.53515,-5.6328 -21.86719,9.9961 -107.25,25.6719 -130.77735,27.0742 -13.16406,2.6914 -41.97265,12.9141 -61.15625,14.5899 -21.50781,1.8828 -95.54687,2.7539 -121.21094,1.4258 -20.39062,-1.0508 -42.97656,-4.3946 -51.21875,-7.4922 -6.15625,-2.3203 -11.9375,-4.8203 -14.54296,-10.0469 -2.3711,-4.7617 -5.58985,-12.4219 -6.44532,-17.3203 l -0.77343,-7.4297 c -14.39454,-1.3906 -32.31641,-1.8516 -46.60547,-2.4297 l -2.07032,5.1133 c -12.52343,22.4258 -25.41015,33.8437 -42.97656,38.0781 -7.33984,1.7695 -24.49219,2.461 -33.46875,1.3438 z m 113.05078,-120.4453 c 7.75,-4.1211 10.29688,-10.086 9.58594,-17.254 -21.19141,-67.0117 -50.56605,21.7447 -9.58594,17.254 z" />
<path style="fill:#e18573; stroke:#3f3845; stroke-width:3.63724494; stroke-linecap:butt; stroke-linejoin:miter; stroke-miterlimit:4" d="m 603.24207,345.69922 c -15.98577,-7.75391 -22.97538,-10.19531 -38.10905,-7.04688 10.19776,-13 19.75938,-15.76562 43.55544,-19.75781 -14.54858,-5.6875 -37.79883,-3.98437 -54.18513,0.53125 11.61138,-16.63281 37.2805,-33.91016 57.22051,-40.35156 -25.00551,-5.57031 -51.12228,0.26172 -69.5819,8.29687 67.64209,-61.53906 150.1037,-112.61328 239.10728,-137.25 14.23051,-4.21093 18.53423,10.42969 17.31301,20.42578 -9.51843,89.42188 -109.50903,234.59766 -190.32927,256.42188 l -2.29714,-0.38672 c -6.56159,-38.21094 -12.25537,-41.91797 -33.56581,-72.03516 8.3836,-9.34765 25.37069,-7.83203 30.87206,-8.84765 z m 0,0" transform="scale(0.994781,1)" />
<path style="fill:#3f3845" d="m 647.92578,1424.9805 c -33.54297,-0.7891 -68.72656,2.6992 -93.64453,-12.8203 -8.59766,-6.7657 -12.05078,-21.4219 -11.62109,-30.2891 -22.0586,-1.3359 -28.14844,-1.1797 -46.60547,-2.4297 -14.80078,40.9375 -46.02735,53.8516 -106.33594,39.7656 -25.42188,-7.6914 -29.80859,-10.5039 -31.76563,-41.1093 -15.40234,-0.418 -30.2539,3.9648 -48.47656,-9.2383 -12.09765,-9.4024 -11.33203,-32.2461 -4.64844,-47.9063 3.82422,-8.9687 13.42579,-18.5586 25.39063,-22.7812 9.60937,-3.6875 15.44531,-6.4844 23.61328,-2.7266 7.22266,4.6133 10.55859,5.7891 12.03516,0.3047 1.07422,-4.3125 -8.52344,-64.1484 -15.69532,-103.5117 -10.84765,-59.5195 -26.92968,-124.5078 -46.69921,-188.6797 -12.28907,-33.01173 -19.51954,-63.91407 -19.03907,-90.54298 0.28125,-29.57812 7.44532,-59.55468 12.51953,-81.3164 4.47657,-19.15625 6.02735,-32.47656 6.57032,-56.37891 1.07422,-47.72265 -2.98438,-71.98047 -14.16797,-84.7539 -5.69141,-6.5 -33.39453,-19.35938 -60.6211,-27.3125 C 165.36328,643.20312 128.00781,623.98828 95.425781,587.55469 66.421875,557.39844 41.765625,512.64844 37.71875,469.50391 c -2.121094,-38.34375 11.285156,-81.66016 41.183594,-82.5586 15.65625,-0.42187 37.105466,0.69141 62.535156,4.07031 28.73828,3.10157 75.69922,13.42579 92.45703,-4.33203 10.11328,-10.64062 16.11719,-18.17578 30.5625,-38.35937 32.78125,-45.80078 43.48047,-58.58985 58.32422,-69.69922 23.75391,-17.78125 44.59766,-24.10547 102.66797,-31.16406 27.7539,-3.375 45.18359,-5.73047 47.58594,-6.42969 3.97656,-16.32031 16.8164,-34.25391 27.46093,-47.66797 C 528.00781,157.875 557.79297,122.42969 587.79687,91.253906 600.76953,79.375 615.03906,68.167969 626.48828,80.09375 c 11.33203,12.214844 9.83984,45.82422 9.97656,61.21094 0.16407,23.1289 0.50391,43.875 0.7461,43.875 27.72656,-14.26953 63.39062,-27.97266 87.36328,-34.73047 41.67578,-11.67578 55.64062,-12.34766 66.3164,-1.92969 1.86329,1.82422 4.35547,5.39453 5.53516,7.9375 7.25391,15.67188 -4.45703,66.49219 -25.73828,111.65625 -20.04297,42.53906 -51.98828,87.17188 -85.72656,119.78125 -7.37891,7.125 -46.82422,40.70703 -50.72657,43.17578 -0.58984,0.375 4.66797,27.3086 8.8711,52.81641 6.83594,41.52344 8.05469,52.8789 8,74.5625 -0.0391,14.28906 -0.45313,20.44531 -1.9336,28.74219 -3.23437,18.12109 -9.23046,34.11328 -18.69531,49.91406 -1.64844,2.74609 -6.73828,9.25781 -9.48047,14.46484 l -4.98828,9.46485 2.89063,7.8125 c 31.42968,36.98437 50.10547,79.02734 77.54687,164.66796 15.375,42.95704 22.83203,54.78907 29.4375,71.22657 20.1875,57.69922 94.02735,106.06251 143.59766,160.55471 40.8164,42.4531 97.76562,151.0156 72.37109,243.1875 16.38281,-20.5078 40.00391,-69.4375 37.15625,-100.7774 -0.87109,-6.6875 -7.39453,-38.6015 -10,-48.9609 -5.54297,-22.9219 -9.68359,-40.4336 -14.0039,-60.0117 -9.09375,-38.961 -25.80469,-78.1992 -28.6875,-132.71878 0.2539,-7.18359 0.35156,-7.49609 2.83593,-8.6914 8.89063,-3.71875 35.34375,2.51172 53.1836,10.79297 51.63286,27.95703 93.01566,62.62501 119.76566,106.36721 13.6601,20.6094 27.039,36.875 38.8554,59.3672 21.4727,51.1015 30.8203,106.5976 9.4571,154.0781 -6.8203,14.8359 -17.9727,28.5039 -37.668,46.1836 -29.8789,26.8086 -75.6445,47.4219 -118.68751,52.7969 -22.49218,0.5859 -43.59375,1.1484 -65.27343,-5.8399 -30.83985,21.6289 -99.26172,30.0352 -142.28125,31.582 -8.21094,2.9883 -19.41016,6.6524 -29.71485,8.0743 -38.98047,4.8476 -77.47656,4.2422 -108.86328,4.2539 z m -199.23047,-9.4414 c 18.01172,-8.8516 21.02344,-13.711 32.07031,-29.6719 11.30079,-19.5508 17.03516,-31.2031 18.33985,-41.3164 4.50781,-29.0742 8.79297,-59.6992 15.45703,-81.8399 9.10937,-38.8867 26.83203,-79.2812 39.33203,-110.9336 9.54297,-23.0859 18.8125,-37.8828 33.01953,-54.996 0.42578,-12.668 -2.47656,-26.1524 -6.9375,-35.9141 -7.48828,-16.0781 -10.14062,-27.3399 -10.875,-46.2422 -0.64844,-16.65234 0.44922,-24.45703 4.29297,-30.55078 1.44531,-2.28906 2.99609,-4.16016 3.45313,-4.16016 2.25,0 2.53515,7.19141 0.57031,14.55078 -3.14844,25.33596 1.78515,46.51566 11.17969,68.19926 7.375,16.9531 9.88671,30.2343 7.38671,39.0156 -12.30078,18.2812 -32.80468,38.5586 -33.49218,61.5391 0,3.3437 3.84375,7.0351 20.22656,19.4179 8.52734,6.4492 18.54687,14.8242 22.26562,18.6172 6.0625,6.1836 11.32813,12.293 14.41016,12.293 15.03516,-47.8867 50.47266,-149.8281 103.12891,-149.7656 51.72265,6.2968 108.79687,79.5937 123.375,131.1992 3.73437,13.2383 18.57812,63.1836 15.52734,63.1836 -1.27734,0 -6.21875,-13.8711 -10.49609,-27.625 -15.09375,-48.418 -43.61328,-100.9922 -82.88672,-133.9961 -12.92969,-8.6953 -32.21875,-31.1485 -54.72266,-21.7617 -44.27734,24.2226 -63.64062,80.7226 -77.67187,122.6015 -18.79297,56.0352 6.35937,101.2735 21.26562,148.4219 16.08203,30.4844 74.22266,44.8828 91.91797,50.1562 28.26172,8.3829 31.84766,9.0625 47.03906,8.9688 22.61328,-0.1445 94.17578,-10.9492 104.97657,-17.3125 9.20312,-5.4219 19.23828,-8.8828 23.3164,-22.2617 3.71875,-12.2344 13.66406,-68.961 16.39844,-93.5508 -0.40234,-110.3438 -54.96094,-192.1758 -139.375,-258.461 -27.30859,-26.15229 -58.84375,-50.54292 -75.125,-83.89448 -11.28906,-23.125 -21.33594,-42.14453 -39.0625,-95.9336 -20.54688,-62.34375 -30.28516,-87.0664 -45.14063,-114.57031 -7.22265,-13.3789 -21.6914,-34.49219 -22.71093,-34.52734 -1.56641,-0.0547 -34.40625,29.26562 -74.25782,66.30469 -64.6289,60.07421 -80.35546,74.17968 -104.49218,93.72656 -15.89844,12.87109 -30.09375,20.35547 -47.52344,25.04297 -31.16797,8.38672 -60.75391,5.97265 -85.39063,-6.96875 -4.67968,-2.46094 -8.59375,-4.36328 -8.69921,-4.23828 -0.69532,0.8789 -3.26954,10.40234 -4.23829,15.69531 -1.5625,8.55078 -3.02734,42.91015 -1.4414,53.64844 3.50781,23.6875 9.8164,46.03125 17.7539,62.875 7.53907,15.99609 8.40625,16.96479 27.40235,30.64059 19.875,14.3047 29.53515,20.8711 42.25,32.7696 33.17969,26.7265 32.75,36.2304 7.3789,-7.5743 -4.52343,-7.9882 -12.96093,-23.2695 -16.28125,-32.5586 -8.26171,-22.79683 -7.34375,-38.22651 -1.57812,-53.87104 9.16406,-24.82032 16.71094,-36.94141 23.61328,-44.32813 3.33984,-3.57422 4.21484,-3.69922 4.21484,-0.58594 0,4.46485 -2.87109,13.5625 -10.09375,31.96875 -7.64843,19.48047 -8.85546,24.57422 -8.88671,37.55469 -0.0234,10.61719 1.1289,16.48437 6.05468,30.85937 3.97657,11.5899 8.69532,21.5352 27.63672,58.1953 4.25781,8.25 9.44531,19.0196 11.51953,23.9336 l 3.77344,8.9297 0.92188,19.2578 c 1.16406,39.8438 -0.46094,74.4102 -0.54688,115.6485 l -0.0352,27.2773 c 3.37891,9.7891 6.96485,20.0312 10.16407,29.0977 6.37109,18.0234 7.14453,23.1953 5.21093,34.7734 -1.97265,11.8242 -1.39062,13.3555 6.24219,16.3203 2.96094,1.1445 6.73438,3.4102 8.39063,5.0234 3.17578,3.0938 5.40625,8.6641 4.46093,11.1407 -0.67187,1.7656 -2.24218,1.0742 -8.58593,-3.793 -3.78125,-2.8984 -7.5586,-4.5156 -11.85547,-4.1602 -16.83594,5.9844 -22.66406,23.5352 -26.82422,39.4375 -2.33203,9.1563 -0.41406,16.4961 4.39844,19.1797 5.36718,2.9883 20.98437,2.9375 28.89062,-0.1015 z m 253.09766,1.7539 c 22.8789,-1.293 64.48047,-3.1446 64.52344,-5.0274 -0.1836,-0.5781 -13.96094,-7.2383 -18.90235,-8.5039 -29.67969,-7.1406 -64.34765,-21.5664 -87.97656,-37.7656 -10.96484,-8.043 -23.44922,-11.7148 -40.98438,4.1836 -10.10156,10.7617 -16.74609,27.2226 -15.125,38.1094 1.05469,7.0547 7.16797,8.1718 17.54688,8.9648 13.91016,1.0586 77.27734,1.0859 80.91797,0.039 z m -279.82031,-59.1524 c 7.07031,-8.0156 6.75781,-10.3554 0.29687,-16.0586 -6.08203,-5.3672 -13.13672,-2.7304 -22.86328,7.7852 -11.84375,15.2305 -13.03516,26.4219 -13.84766,43.7851 -0.46093,10.3438 1.20313,14.5743 2.44532,15.2383 28.60546,11.3633 8.25781,-14.7187 33.96875,-50.75 z m 174.3125,43.5235 c 2.67578,-16.8633 5.83984,-24.0039 14.91015,-34.6602 9.97266,-11.1289 13.63281,-11.1016 22.875,-14.3828 -7.7539,-8.5352 -20.05078,-15.2344 -30.92578,-12.1406 -26.94531,8.8593 -34.89062,25.9062 -33.26562,57.289 1.08593,8.8633 3.53125,13.668 11.7539,15.168 10.21094,1.1641 12.82422,-1.5664 14.65235,-11.2734 z m -31.53907,2.3672 c -5.57812,-23.2891 -0.53125,-65.7422 40.61328,-70.0508 -47.10937,-17.6563 -65.37109,52.0468 -49.8125,68.3281 8.66407,9.4258 10.49219,6.9531 9.19922,1.7227 z m -185.73437,-14.379 c -2.02735,-20.8242 6.85547,-30.7578 15.125,-45.9062 10.07422,-15.793 -8.25391,-4.125 -12.94922,0.4297 -15.24219,17.8789 -15.97266,27.6875 -11.87109,50.8984 1.05859,5.6836 9.22656,21.586 9.69531,-5.4219 z m 613.36719,-15.0351 c 34.92579,-4.1094 74.58589,-20.3672 97.21089,-35.5703 35.5235,-22.4102 53.7266,-52.5313 59.4454,-91.6094 1.6328,-11.7539 1.8593,-32.582 0.4804,-43.8555 -2.0664,-16.8984 -12.0273,-56.582 -16.0468,-63.9414 -3.5118,-6.4297 -7.0469,-11.4531 -8.0743,-11.4765 -0.5976,-0.02 -1.3554,1.4179 -1.6914,3.1953 4.5235,25.0781 13.8125,65.0547 -3.664,8.3633 -1.2227,-2.4219 -3.2422,-8.375 -4.4961,-13.2227 -4.711,-18.2773 -12.3125,-34.2734 -28.1055,-59.1484 -11.0664,-17.4336 -16.5977,-24.75 -22.082,-29.2383 -10.8946,-8.918 -13.6289,-8.5391 -7.9336,1.0937 3.1211,2.4766 22.9883,46.5196 18.9297,47.0977 -2.4844,0 -6.8125,-5.7813 -12.3789,-16.5469 -11.0039,-21.2734 -29.2735,-46.9766 -43.5782,-61.3086 -8.3828,-8.3945 -21.10544,-18.97264 -28.51559,-23.70311 -14.30469,-9.125 -41.71875,-19.35156 -51.9336,-19.375 -10.71484,3.67969 -0.85937,34.87501 0.66797,43.74221 3.94531,22.9922 6.94922,34.5859 15.45703,59.5898 7.17969,21.1055 9.89844,27.9063 15.76172,39.4258 2.67188,5.2461 6.08594,12.2031 7.59375,15.457 1.50781,3.25 4.00391,8.2032 5.55078,11.0118 1.76563,3.2226 2.69531,6.0586 2.50391,7.6836 l -0.29688,2.5781 -3.28515,-2.9063 c -8.45703,-7.4883 -9.71485,-0.3593 -3.66797,20.7344 5.87109,20.4492 8.61719,31.9648 11.17578,46.8281 3.36328,19.543 5.44922,36.5196 4.73047,39.4063 -0.52735,2.1211 -2.51172,-10.793 -5.62891,-11.2969 -3.28906,-0.5312 -3.48437,-0.418 -4.92969,2.9453 -7.89843,27.5156 -23.46484,51.1797 -32.88281,67.375 -10.41406,16.0938 -17.91015,41.1758 -16.86328,61.9297 18.22266,3.9531 39.9375,6.5781 56.54688,4.7422 z m -633.78516,-5.3399 c 4.64844,-21.5742 16.46875,-45.0703 40.55859,-43.5117 8.16407,0.6328 17.74219,2.9532 24.375,5.9063 7.91016,3.5195 10.38672,1.125 11.14844,-9.8555 0.83594,-12.1094 -1.28906,-19.1133 -11.02734,-36.3711 -8.3711,-16.5312 -4.07422,-32.082 -3.84375,-57.7422 0.64453,-32.3281 2.6289,-71.7695 1.85156,-95.9883 -1.26563,-38.6601 -7.29688,-38.8437 -21.32422,-50.8906 -9.45312,-8.4492 -14.00781,-11.2031 -33.37109,-27.4687 -18.42188,-15.8789 -31.625,-25.0586 -47.6875,-34.3946 0,1.2032 9.75781,33.5039 20.08984,78.2579 14.74609,84.5273 33.07422,140.0703 35.14453,218.9335 -0.99219,14.7618 -7.67578,12.3555 -5.75,8.0508 3.47266,-9.4336 -6.82031,-17.125 -13.1289,-13.8086 -19.25,15.6524 -22.97657,27.0703 -21.84766,50.1524 -0.78516,16.6992 15.58594,11.3047 24.8125,8.7304 z m 183.89453,3.6368 c 4.94531,-16.793 6.92969,-30.918 28.26172,-44.1641 19.92578,-10.8828 46.50391,-2.6211 58.48047,8.1875 29.48047,22.8789 24.52344,19.4844 7.80859,-26.7109 -27.84375,-16.543 -32.3125,-32.7891 -12.48047,-36.8789 0,0 -4.16406,-32.8907 -7.0664,-46.5625 -6.76172,-9.043 -45.65235,-42.0469 -53.41797,-46.0313 -6.45313,-3.3086 -7.75391,-2.4844 -13.10938,8.3047 -5.07031,10.1992 -14.53125,34.2461 -17.89453,45.4648 -2.05469,6.9297 -3.20312,13.7539 -4.39062,20.8438 l 5.50781,11.1719 c 5.35547,10.8789 8.64062,19.6757 9.77734,26.2031 0.4336,2.4883 0.1211,3.7695 -1.40234,5.7187 -2.38672,3.043 -10.48047,7.2461 -16.92188,8.7696 -9.86718,2.3359 -12.53125,6.8593 -13.82812,23.4336 -1.18359,15.1836 -7.78906,34.1601 -9.36719,39.9062 13.0625,1.3906 32.33203,1.457 40.04297,2.3438 z M 325.12891,1348.375 c 0.94531,-17.6172 12.11328,-33.9805 23.20703,-40.5937 2.84375,-0.625 1.43359,-2.7149 -0.82032,-5.2149 -2.0664,-2.2969 -3.22656,-2.1328 -10.86718,1.5625 -15.58594,7.5352 -24.92188,18.6016 -26.42578,39.0274 -0.75,10.1757 1.25781,16.4882 3.99218,19.2382 17.15235,13.9727 10.34375,-5.2422 10.91407,-14.0195 z m 205.47265,-48.8711 c 4.17969,-2.9453 3.40625,-11.0976 0.91016,-19.0586 -7.59766,-24.2461 -6.47656,-18.5898 -9.38672,-8.793 -1.78125,6.0079 -2.55469,14.7149 -4.9375,28.7071 8.82422,1 9.17969,1.9531 13.41406,-0.8555 z M 361.33203,827.57422 c 32.26563,-5.60547 70.15234,-25.00391 116.58203,-59.69531 18.40625,-13.75782 55.94531,-45.89063 91.8125,-78.59375 29.71485,-27.09766 42.94141,-40.04297 50.06641,-49.39454 17.33594,-20.92968 27.52344,-60.30859 24.54687,-90.58984 -3.44531,-38.63281 -10.05859,-93.16797 -19.86328,-120.24219 -6.54297,1.66407 -6.71094,2.35938 -13.96875,4.01563 0,0 -8.71484,0.36328 -9.15234,-3.23828 -2.56641,-27.9336 -14.89453,-54.65625 -34.25,-75.35547 1.3125,-1.23438 2.27734,0.0664 2.27734,0.0664 20.9961,18.80079 33.50391,47.60157 35.67578,72.42188 3.8125,-0.46484 8.32813,-0.53906 10.56641,-2.23828 C 679.24219,391.85156 718.32812,341 753.35547,281.43359 c 16.97265,-32.07422 35.57812,-75.09375 36.46875,-107.16797 0.19531,-11.38281 -2.48828,-19.22265 -7.66016,-21.6914 -4.13672,-1.97266 -6.48437,-6.33203 -34.79687,-1.17578 -32.69141,8.44531 -72.15235,26.10547 -108.89063,42.60547 -23.23437,10.43359 -79.36328,40.18359 -113.97656,57.98828 -46.54688,18.375 -21.78516,-5.9961 -95.01563,4.78125 -53.43359,6.74609 -71.64453,8.78515 -101.72656,31.0664 -18.35937,13.83594 -32.78125,29.65235 -60.4414,70.67578 -25.83204,35.01172 -23.61329,47.8125 -89.07813,45.88282 2.67969,17.92578 2.48047,48.05078 -1.02344,65.6289 -5.08984,23.78907 -20.55078,44.58203 -33.30078,57.73438 -8.64844,8.92187 -30.5039,21.47656 -47.898435,31.86328 l -10.160156,4.98828 c 17.335941,21.96484 44.089841,51.21484 72.179691,61.57422 57.95539,-0.30614 108.25437,-29.88549 130.11793,-84.25737 1.27334,-3.16664 2.56228,-4.52581 19.62454,-3.92143 2.26182,-0.002 1.84687,4.43092 -0.12138,4.39409 -8.60024,0.27262 -14.0332,-0.7492 -15.3853,3.09508 -22.19141,54.54687 -71.1147,85.65838 -125.57954,85.30291 0.53515,1.64063 24.78125,9.60156 38.94921,15.26953 7.46094,2.98438 23.94532,8.96485 36.63282,13.29297 32.77734,11.17969 42.97656,16.29688 55.54687,27.87891 6.84766,6.30078 8.85938,9.74218 10.37891,17.73047 3.01172,15.80078 3.72656,65.91015 1.3164,91.66015 l -1.52734,16.3125 4.36719,3.86328 c 11.72656,10.3711 29.16406,14.20313 48.97656,10.76563 z m 179.8125,-206.28516 c -0.28125,-0.74609 1.01172,-4.75 2.88281,-8.91015 1.8711,-4.15235 4.51953,-8.63672 6.82813,-15.14063 l -11.51953,-0.26172 20.73437,-17.83984 c 7.1875,-13.23828 17.33594,-28.74219 17.79688,-46.22656 0,-1.34766 -1.2461,-8.53907 -2.77344,-15.98829 -2.40625,-11.75 -10.67969,4.50782 -9.73438,1.6211 0.60547,-1.83203 9.17579,-23.90235 9.21094,-26.44531 0.0625,-4.16016 -0.8125,-6.28516 -8.83594,-21.41797 -4.90234,-9.24219 -10.71093,-19.61328 -12.91015,-23.04688 -5.21094,-8.13281 -4.98828,-9.63281 1.7539,-11.77734 2.85938,-0.91016 5.19922,-2.11719 5.19922,-2.67578 0,-0.56641 -4.16406,-5.14063 -9.24609,-10.16797 -12.46484,-12.32031 -14.88281,-15.96094 -10.60547,-15.96094 2.98047,0 7.42969,3.55078 24.53906,19.60156 16.1875,15.1875 24.47657,17.6836 22.85938,21.91797 -0.29688,0.78125 -10.21875,0.9375 -13.14844,1.76172 -2.92578,0.82813 -5.78125,2.05859 -6.34766,2.74219 -1.79296,2.17969 -0.0586,7.07422 6.125,17.27734 8.27735,13.66016 11.59375,21.19141 14.84766,33.70703 25.42188,62.77735 3.19141,18.13672 0.004,27.11328 -1.71094,4.8125 -2.9375,34.67969 -4.64453,52.58594 -0.46875,4.85547 -4.75391,-14.75 -10.90625,-2.88672 -2.3086,4.45703 -8.07813,12.44532 -11.76172,18.39063 -9.31641,15.04297 -19.00782,25.53125 -20.34766,22.02734 z M 287.36328,482.98828 c -7.35547,-2.71875 -13.38281,-7.91016 -16.90234,-14.55859 -2.20313,-4.16797 -2.40625,-5.42969 -2.40625,-15.00391 0,-9.0625 0.34375,-11.52344 2.59765,-18.42578 5.0586,-15.52344 13.85547,-30.24219 24.65625,-41.27344 7.52735,-7.67969 13.14063,-11.5039 27.78907,-18.91015 8.52734,-4.3125 11.75,-5.48047 16.01953,-5.78907 5.08984,-0.36718 5.48047,-0.24609 8.41797,2.70703 4.09765,4.125 8.70312,18.17969 9.38281,28.66016 0.60156,9.26563 -1.10547,25.41016 -3.83985,36.26953 -6.05859,24.11719 -22.64453,42.0586 -42.85156,46.36719 -7.46875,1.58984 -18.5,1.57031 -22.86328,-0.043 z m 15.38281,-5.03516 c 17.27344,-4.8164 30.57422,-15.53125 37.64453,-30.32812 5.03907,-10.55078 6.8125,-20.48438 6.85157,-38.33203 0.0273,-13.47656 -0.98828,-20.5586 -3.75391,-26.04688 -2.16406,-4.30078 -3.94922,-4.79687 -10.80859,-3.01172 -16.1211,4.19922 -30.54297,12.375 -35.20313,19.95704 -1.78906,2.90234 -1.88672,3.90234 -1.30859,13.09765 0.57812,9.19141 0.46875,10.27344 -1.41406,14.19141 -1.97657,4.10547 -5.21485,6.92578 -11.90235,10.35156 -4.48828,2.30859 -6.48437,5.73047 -6.92969,11.88281 -0.69531,9.6875 4.58204,22.23047 11.95313,28.4336 2.50391,2.09765 6.83203,2.03906 14.87109,-0.19532 z M 557.50781,224.78125 C 583.59375,209.15234 629.5,188.42969 629.5,188.42969 c -0.13281,-4.83203 -0.95703,-28.47266 -0.62109,-38.26172 1.11718,-32.74219 -0.91407,-50.609376 -4.53907,-58.054689 -2.74218,-5.628906 -8.79297,-7.234375 -13.29687,-6.386719 -9.58594,1.808594 -29.44531,20.484378 -48.1836,44.062498 -24.5039,31.45313 -49.53906,61.16797 -72.625,93.03906 -3.22656,6.32813 -9.76562,13.9375 -2.85156,23.94141 13.86719,13.13281 53.74219,-13.79687 70.125,-21.98828 z" />
<path style="fill:#ffff45; stroke:#3f3845; stroke-width:2.7184701; stroke-linecap:square; stroke-linejoin:miter; stroke-miterlimit:4" d="m 390.6837,874.55368 c -0.003,14.68767 -7.61898,26.59535 -17.01266,26.59712 -9.39777,-0.002 -17.01196,-11.91073 -17.01322,-26.59815 -0.001,-14.68742 7.61897,-26.59535 17.0164,-26.60126 9.39402,0.006 17.00821,11.91487 17.00948,26.60229 z m 0,0" transform="matrix(0.993845,0.0617333,-0.0437028,1,0,0)" />
<path style="fill:#d40000; stroke:#3f3845; stroke-width:2.72793388; stroke-linecap:butt; stroke-linejoin:miter; stroke-miterlimit:4" d="m 347.5443,873.95312 c -8.7802,-1.09765 -20.24629,-3.98046 -27.43223,-6.90234 -9.90717,-4.02344 -22.39422,-10.6875 -25.09189,-13.52734 -3.94638,-6.57422 3.20815,-40.11719 7.33123,-46.3711 7.25269,5.79297 20.21095,15.91797 30.1888,19.25391 9.21607,3.00781 23.961,3.35547 35.91793,0.83984 33.75822,-7.09765 78.38566,-33.11328 123.92803,-69.01172 28.81837,-22.71484 78.421,-63.51953 102.22884,-87.27734 l 25.73196,-25.58594 c 12.40851,9.54688 20.22665,24.33594 8.576,35.01563 l -11.98049,12.59765 c -21.1141,18.4336 -35.86295,33.25782 -74.34504,68.67188 -92.03894,84.69141 -108.12289,93.38281 -130.92941,102.82031 -19.24105,7.96485 -45.33819,11.82031 -64.12373,9.47656 z m 0,0" transform="scale(0.994781,1)" />
<path style="fill:#e18573" d="m 625.76562,1277.1758 c 2.26563,9.2695 4.39844,12.1523 7.92579,26.7539 -19.6211,-13.6602 -24.21875,-23.2227 -7.92579,-26.7539 z m 0,0" />
<path style="fill:#ffffff; stroke:#3f3845; stroke-width:7.27448988; stroke-linecap:butt; stroke-linejoin:miter; stroke-miterlimit:4" d="m 323.53226,379.46875 c 10.99096,-5.29688 25.24897,-14.19922 32.16789,11.48047 8.52496,31.64062 -12.20432,86.29297 -50.11703,89.83594 -17.37584,0.29687 -32.76475,-5.34766 -34.40613,-19.35938 -5.0655,-43.17969 40.08027,-76.24609 52.35527,-81.95703 z m 0,0" transform="scale(0.994781,1)" />
<path style="fill:#232e33" d="m 296.46094,403.83594 c 12.9375,28.43359 -6.48047,42.16797 -23.26563,45.78906 -2.19531,-8.5625 11.23047,-38.19922 23.26563,-45.78906 z m 0,0" />
<path style="fill:#ffff45; stroke:#3f3845; stroke-width:1.81289899; stroke-linecap:square; stroke-linejoin:miter; stroke-miterlimit:4" d="m 416.82542,859.64035 c 0.004,14.58168 -6.68629,26.40264 -14.93964,26.39987 -8.25303,10e-4 -14.94359,-11.8224 -14.94312,-26.40057 1.6e-4,-14.58205 6.6905,-26.39913 14.93963,-26.39987 8.25694,-10e-4 14.9436,11.8224 14.94313,26.40057 z m 0,0" transform="matrix(0.993468,0.0952706,-0.0798176,1,0,0)" />
<path style="fill:#ffff45; stroke:#3f3845; stroke-width:1.81862295; stroke-linecap:butt; stroke-linejoin:miter; stroke-miterlimit:4" d="m 340.07171,827.625 c 5.11262,-3.63672 8.37182,1.12109 8.37182,1.12109 -7.72391,17.85157 -9.86398,28.41407 -9.93466,44.66797 -0.26702,5.11719 -8.67811,4.46094 -8.49748,-0.46094 0.57723,-15.66015 2.03798,-27.11718 10.06032,-45.32812 z m 0,0" transform="scale(0.994781,1)" />
<path style="fill:#78421e" d="m 321.42187,893.21875 c 0.25782,0.0742 0.46094,-0.0195 0.60938,-0.28125 0.14453,-0.26953 0.23828,-0.70703 0.28125,-1.3125 0.0312,-0.59375 -0.0117,-1.0625 -0.125,-1.40625 -0.11719,-0.34375 -0.30469,-0.55078 -0.5625,-0.625 l -0.89063,-0.26563 -0.20312,3.625 z m -0.375,7.53125 c 0.32032,0.0937 0.57032,-0.0195 0.75,-0.34375 0.1875,-0.33203 0.30469,-0.87891 0.35938,-1.64063 0.0391,-0.75 -0.008,-1.32812 -0.14063,-1.73437 -0.13671,-0.41406 -0.37109,-0.67188 -0.70312,-0.76563 l -0.95313,-0.28125 -0.26562,4.48438 z m 1.85938,-5.73438 c 0.33203,0.38672 0.57031,0.98047 0.71875,1.78125 0.15625,0.79297 0.20312,1.73047 0.14062,2.8125 -0.0937,1.65625 -0.375,2.82813 -0.84375,3.51563 -0.46093,0.6875 -1.10156,0.91016 -1.92187,0.67187 l -2.70313,-0.78125 1,-17.17187 2.42188,0.70312 c 0.88281,0.26172 1.5,0.8086 1.84375,1.64063 0.35156,0.83594 0.48437,2.04687 0.39062,3.64062 -0.0547,0.83594 -0.16796,1.52344 -0.34375,2.0625 -0.16796,0.54297 -0.40234,0.91797 -0.70312,1.125 z m 0,0" />
<path style="fill:#78421e" d="m 328.38672,891.44141 c -0.5,-0.14454 -0.91797,0.24218 -1.25,1.15625 -0.32422,0.91796 -0.53906,2.28125 -0.64063,4.09375 -0.10547,1.79296 -0.0547,3.23046 0.15625,4.3125 0.21875,1.08593 0.57813,1.69921 1.07813,1.84375 0.48828,0.13671 0.89844,-0.25391 1.23437,-1.17188 0.33203,-0.91406 0.55078,-2.26953 0.65625,-4.0625 0.10157,-1.8125 0.0469,-3.25781 -0.17187,-4.34375 -0.21875,-1.08203 -0.57422,-1.69141 -1.0625,-1.82812 z m 0.1875,-3.21875 c 1.00781,0.29296 1.7539,1.32031 2.23437,3.07812 0.48828,1.75 0.65625,4.01563 0.5,6.79688 -0.16797,2.77343 -0.58593,4.86718 -1.25,6.28125 -0.66797,1.41406 -1.50781,1.97656 -2.51562,1.6875 -1.01172,-0.30469 -1.76172,-1.32813 -2.25,-3.07813 -0.48047,-1.75 -0.63672,-4.00781 -0.46875,-6.78125 0.15625,-2.78125 0.5664,-4.87891 1.23437,-6.29687 0.66407,-1.42579 1.50391,-1.98829 2.51563,-1.6875 z m 0,0" />
<path style="fill:#78421e" d="m 332.8125,889.78125 1.625,0.46875 -0.8125,13.82812 2.84375,0.82813 -0.1875,3.34375 -4.46875,-1.29688 z m 0,0" />
<path style="fill:#78421e" d="m 337.40234,891.11719 5.79688,1.6875 -0.20313,3.34375 -2.07812,-0.60938 -0.79688,13.82813 -1.64062,-0.46875 0.79687,-13.82813 -2.07812,-0.60937 z m 0,0" />
</g>
</svg>
