<?xml version="1.0" encoding="UTF-8" standalone="no"?>
<svg xmlns="http://www.w3.org/2000/svg" viewBox="0 0 800 1000" height="1000" width="800" version="1.1" id="Cosmos">
<g transform="matrix(1.3333333,0,0,-1.3333333,0,1000)">
<g transform="matrix(1,0,0,-1,0,750)">
<path style="fill:#000025; fill-opacity:1; fill-rule:nonzero; stroke:#666666; stroke-width:7.5; stroke-linecap:round; stroke-linejoin:round; stroke-miterlimit:4; stroke-dasharray:none; stroke-opacity:1" d="m 26.25,3.75 h 547.5 c 12.465,0 22.5,10.035 22.5,22.5 v 697.5 c 0,12.465 -10.035,22.5 -22.5,22.5 H 26.25 c -12.465,0 -22.5,-10.035 -22.5,-22.5 V 26.25 c 0,-12.465 10.035,-22.5 22.5,-22.5 z" />
</g>
<path style="fill:#e5d7b5; fill-opacity:1; fill-rule:nonzero; stroke:none" d="m 157.043,65.285 c -10.754,4.328 -24.664,12.645 -31.676,18.942 -8.078,7.253 -13.777,14.878 -19.152,25.617 -2.32,4.636 -4.637,9.203 -5.149,10.148 -1.257,4.008 -2.765,8.055 -4.3,11.235 -2.77,5.707 -5.157,8.589 -13.297,16.089 -5.891,5.516 -13.504,10.336 -19.914,13.813 -5.399,2.754 -12.743,9.527 -14.727,13.586 -2.883,5.89 -2.5,10.617 1.285,15.918 5.168,10.461 28.875,13.39 34.184,13.418 7.055,0 7.945,-0.278 19.402,-6.012 55.512,-27.797 54.434,-27.391 58.711,-22.019 2.36,2.96 2.227,5.839 -0.531,11.582 -1.527,3.175 -14.801,15.273 -23.594,21.503 -10.308,7.301 -12.504,12.524 -7.933,18.864 2.378,3.297 8.714,6.824 12.265,6.824 2.547,0 18.637,-7.535 25.313,-11.852 5.32,-3.445 7.019,-4.441 13.558,-7.984 6.746,-4.023 14.465,-7.414 20.453,-10.023 14.012,-8.829 23.036,3.101 37.45,-2.372 6.363,-2.585 9.472,-1.203 11.73,3.223 1.309,2.59 2.918,6.883 3.578,9.539 0.656,2.653 3.551,9.571 6.426,15.371 4.598,9.27 6.379,11.684 14.77,20.02 17.312,17.199 35.527,24.078 67.289,25.406 30.582,1.277 35.214,-8.285 14.171,-29.258 -7.332,-7.308 -17.921,-14.058 -22.043,-14.054 -2.785,0.003 -15.382,-3.012 -21.253,-5.094 -3.641,-1.289 -8.243,-4.43 -10.895,-7.098 -2.215,-2.047 -2.641,-3.929 -0.164,-5.543 3.965,-2.539 10.84,-0.078 14.574,0.996 l 67.219,13.848 c 9.848,1.449 19.082,10 22.973,17.203 6.777,17.918 2.945,23.484 -5.461,39.781 -9.399,18.227 -12.922,27.18 -12.922,32.844 0,5.25 8.457,20.586 20.84,37.789 15.367,21.352 20.207,29.594 21.062,35.875 0.445,3.281 -3.984,18.926 -7.73,27.317 -4.575,11.968 -12.453,30.671 -9.18,43.152 1.457,4.801 6.992,9.855 12.016,10.969 5.027,1.117 11.464,-1.114 20.066,-6.946 13.406,-9.093 28.086,-41.797 28.828,-43.707 4.121,-10.617 7.356,-21.547 9.461,-31.98 1.352,-6.684 -0.207,-13.922 -5.211,-24.215 -3.57,-7.344 -3.281,-9.715 2.035,-16.715 2.059,-2.711 5.508,-7.387 7.66,-10.387 4.989,-6.949 13.227,-16.503 21.59,-25.039 7.012,-7.156 10.297,-8.363 13.442,-4.929 5.953,7.707 2.992,11.609 2.187,19.215 -2.535,13.5 -3.871,26.085 -6.011,39.511 -2.52,33.496 -6.262,101.289 6.472,126.934 1.84,0 5.399,-5.676 12.473,-19.899 26.863,-70.113 37.539,-135.82 18.859,-201.242 -12.801,-32.535 -22.008,-59.633 -42.051,-86.465 -16.062,-18.855 -34.238,-35.605 -53.156,-49.886 -10.758,-8.946 -23.476,-15.524 -34.988,-22.282 -25.184,-14.101 -54.535,-25.105 -74.317,-28.66 -55.519,-10.965 -106.871,5.645 -140.363,3.082 -0.75,-0.054 -5.57,-0.769 1.895,-7.101 14.16854,-9.410492 36.41232,-29.397762 37.961,-45.809 -35.56457,2.478261 -66.1205,14.800151 -96.18,26.957 z M 72.73,246.938 c -16.019,29.902 -33.66,64.468 -38.429,96.945 -3.438,20.48 -4.938,44.945 -2.582,65.441 4.504,35.508 16.383,66.238 29.25,92.094 16.929,42.844 49.625,73.137 82.019,99.176 45.188,33.398 106.242,51.09 157.512,52.429 52.109,-2.394 66.848,-12.543 90.418,-9.105 4.945,-2.469 -0.531,5.211 -0.531,7.672 -18.153,14.828 -36.43,32.035 -47.285,53.23 -7.532,10.895 5.199,6.313 12.367,5.082 22.879,-3.937 42.726,-9.84 62.273,-19.988 11.207,-4.656 26.317,-10.156 35.875,-17.187 10.602,-6.184 21.266,-12.985 30.11,-21.067 7.089,-6.586 16.132,-17.656 16.132,-19.75 2.594,-6.613 5.778,-12.262 8.645,-19.297 1.492,-6.605 14.01957,-21.00252 16.031,-22.66 6.684,-5.746 16.051,-9.144 23.531,-13.312 6.461,-3.582 15.024,-10.68 16.668,-13.813 1.817,-3.453 1.809,-11.051 -0.015,-14.476 -10.77378,-14.83289 -27.231,-21.649 -50.02,-17.473 -7.94985,2.60387 -71.73278,46.23347 -75.99238,30.63674 -2.88011,-8.47321 5.83638,-15.44174 22.54738,-28.03574 32.82,-24.734 32.578,-24.527 32.578,-28.148 0,-4.242 -1.602,-6.566 -5.684,-8.25 -5.574,-2.301 -11.105,-1.75 -18.16,1.805 -19.847,10 -50.136,25.39 -61.523,29.613 -7.578,2.73 -18.363,5.539 -19.606,5.102 l -29.234,-3.036 c 0,0 -7.117,-3.918 -8.809,-8.238 -3.687,-7.785 -6.886,-17.058 -10.648,-23.941 -7.309,-13.328 -20.48,-23.254 -40.172,-30.274 -21.59,-7.695 -64.77998,-23.04034 -63.269,4.11 0,9.933 8.648,19.5 25.074,27.734 5.816,2.918 13.969,6.32 18.109,7.566 11.488,3.446 15.594,5.45 18.012,8.805 2.578,3.574 2.101,6.254 -1.383,7.82 -1.894,0.852 -4.004,0.649 -9.773,-0.953 l -70.395,-14.398 c -6.125,-2.836 -9.258,-5.082 -13.519,-9.688 -3.051,-3.297 -6.383,-7.777 -7.407,-9.957 -2.144,-4.566 -2.531,-14.761 -0.773,-20.261 2.762,-8.649 4.539,-13.332 10.058,-26.52 5.813,-13.894 5.883,-14.172 5.872,-23.801 -0.008,-8.968 -0.243,-10.152 -2.969,-14.843 -1.629,-2.805 -5.242,-8.075 -8.028,-11.704 -4.804,-6.218 -8.96,-13.511 -12.511,-18.808 -4.102,-6.102 -9.352,-14.641 -11.668,-18.981 -4.071,-7.609 -4.196,-8.117 -3.641,-14.718 0.356,-4.254 1.508,-8.754 3.047,-11.903 1.363,-2.781 3.895,-8.855 5.625,-13.488 1.734,-4.637 3.859,-9.992 4.723,-11.902 7.914,-17.453 6.922,-32.485 -2.407,-36.36 -8.578,-3.562 -19.406,-1.121 -28.628,6.457 -10.602,8.715 -27.973,48.942 -29.754,54.899 -2.606,8.742 -6.532,17.609 1.449,39.5 2.992,8.422 2.894,15.797 -0.274,20.746 -9.851,15.383 -31.105,39.086 -36.171,40.34 -4.04,1 -7.106,-1.067 -8.348,-5.629 -4.836,-20.242 -0.891,-44.828 2.551,-61.942 3.851,-18.75 4.558,-22.273 6.175,-30.738 2.454,-16.726 0.457,-47.82 -5.101,-66.441 C 78.223,242.426 77.16,240.992 72.73,246.938 Z" />
<path style="fill:#ac6b48; fill-opacity:1; fill-rule:nonzero; stroke:none" d="m 47.199,470.023 c 0.629,1.184 3.821,-10.273 7.453,-18.921 5.739,-13.672 9.309,-28.938 10.696,-45.743 1.406,-16.992 0.48,-28.574 -3.668,-45.894 C 59.012,348.32 43.504,314.668 42.086,313.098 24.242,362.641 26.332,415.184 47.199,470.023 Z m 36.09,30.059 c -8.562,0.824 -22.105,1.164 -22.32,1.336 39.66,97.07 137.789,138.824 183.629,144.141 -11.379,-17.551 -23.442,-34.032 -31.536,-47.207 -33.624,-54.821 -40.64,-65.145 -51.906,-76.356 -23.433,-22.109 -53.765,-24.141 -77.867,-21.914 z m 359.547,101.098 -66.531,32.769 c 0.019,11.215 16.558,10.363 13.73,15.656 -1.086,2.379 -6.758,7.204 -10.07,10.141 -14.285,10.887 -39.52,42.016 -39.238,50.926 0.191,1.668 0.734,1.98 2.144,1.769 48.149,-7.316 131.652,-32.902 162.852,-88.699 4.582,-8.39 8.22813,-21.77742 14.34366,-28.93817 L 514.203,589.559 c -8.062,-7.383 -13.262,-9.469 -19.551,-9.371 -16.773,2.261 -35.683,13.527 -51.816,20.992 z" />
<path style="fill:#4b2e24; fill-opacity:1; fill-rule:nonzero; stroke:none" d="m 117.969,121.66 c -2.489,2.715 -2.168,8.633 0.57,10.528 3.211,2.218 6.531,1.902 9.363,-0.891 2.985,-2.949 3.168,-6.789 0.453,-9.469 -2.562,-2.531 -8.14,-2.621 -10.386,-0.168 z M 63.98,200.293 c 6.75,-7.137 8.09,-15.367 8.129,-22.281 0.008,-7.578 -2.043,-19.739 -3.671,-19.739 -28.708,10.875 -27.879,35.079 -4.458,42.02 z m 467.586,372.289 c 1.969,7.18 7.34,8.664 7.34,8.664 33.582,-7.348 44.875,-29.262 9,-47.254 -15.394,0.363 -18.578,29.977 -16.34,38.59 z m -57.722,30.867 c -5.418,2.098 -6.934,9.188 -2.762,12.895 3.215,2.855 5.281,3.363 8.789,2.156 5.649,-1.945 7.391,-9.328 3.106,-13.156 -1.961,-1.75 -6.872,-2.77 -9.133,-1.895 z" />
<path style="fill:#2271bd; fill-opacity:1; fill-rule:nonzero; stroke:none" d="m 216.156,89.789 c -0.468,0.715 -0.285,28.938 -0.293,59.691 l -0.015,55.918 c 8.996,2.434 19.429,0.227 27.117,-2.855 v -55.172 l -0.289,-60.93 c -7.082,-1.847 -15.289,-2.281 -26.52,3.348 z m 19.035,16.773 c 5.172,4.977 1.508,13.594 -5.785,13.594 -4.289,0 -8.344,-3.906 -8.344,-8.031 0,-4.125 4.055,-8.027 8.344,-8.027 2.032,0 4.172,0.91 5.785,2.464 z m 0,33.114 c 5.172,4.98 1.508,13.594 -5.785,13.594 -4.289,0 -8.344,-3.903 -8.344,-8.028 0,-4.125 4.055,-8.027 8.344,-8.027 2.032,0 4.172,0.91 5.785,2.461 z m 0,34.121 c 5.172,4.976 1.508,13.59 -5.785,13.59 -4.289,0 -8.344,-3.903 -8.344,-8.028 0,-4.125 4.055,-8.027 8.344,-8.027 2.032,0 4.172,0.91 5.785,2.465 z" />
<path style="fill:#e5456d; fill-opacity:1; fill-rule:nonzero; stroke:none" d="m 356.613,527.746 c -0.472,0.715 -0.285,33.246 -0.293,64 l -0.015,54.574 c 8.992,2.43 19.429,1.571 27.117,-1.511 v -55.172 l 0.254,-61.469 c -7.078,-1.848 -15.832,-2.816 -27.063,-0.422 z m 19.032,21.082 c 5.175,4.977 1.507,13.594 -5.782,13.594 -4.289,0 -8.343,-3.902 -8.343,-8.031 0,-4.125 4.054,-8.028 8.343,-8.028 2.032,0 4.168,0.91 5.782,2.465 z m 0,33.113 c 5.175,4.981 1.507,13.594 -5.782,13.594 -4.289,0 -8.343,-3.902 -8.343,-8.027 0,-4.125 4.054,-8.028 8.343,-8.028 2.032,0 4.168,0.911 5.782,2.461 z m 0,34.121 c 5.175,4.977 1.507,13.59 -5.782,13.59 -4.289,0 -8.343,-3.902 -8.343,-8.027 0,-4.125 4.054,-8.027 8.343,-8.027 2.032,0 4.168,0.91 5.782,2.464 z" />
<path style="fill:#f2f2f2; fill-opacity:1; fill-rule:nonzero; stroke:none" d="m 356.25,375 c 0,-31.066 -25.184,-56.25 -56.25,-56.25 -31.066,0 -56.25,25.184 -56.25,56.25 0,31.066 25.184,56.25 56.25,56.25 31.066,0 56.25,-25.184 56.25,-56.25 z" />
<path style="fill:#ff5500; fill-opacity:1; fill-rule:nonzero; stroke:none" d="m 357.758,374.852 c 0,-8 -1.5,-15.5 -4.5,-22.5 -3,-7 -7.153,-13.102 -12.453,-18.297 -5.305,-5.2 -11.453,-9.297 -18.453,-12.297 -7,-3 -14.5,-4.5 -22.5,-4.5 -8,0 -15.5,1.5 -22.5,4.5 -7,3 -13.102,7.097 -18.297,12.297 -5.2,5.195 -9.297,11.297 -12.297,18.297 -3,7 -4.5,14.5 -4.5,22.5 0,8 1.5,15.5 4.5,22.5 3,7 7.097,13.148 12.297,18.453 5.195,5.3 11.297,9.453 18.297,12.453 7,3 14.5,4.5 22.5,4.5 8,0 15.5,-1.5 22.5,-4.5 7,-3 13.148,-7.153 18.453,-12.453 5.3,-5.305 9.453,-11.453 12.453,-18.453 3,-7 4.5,-14.5 4.5,-22.5 z m -96.906,7.796 c -2.2,0 -4.047,-0.75 -5.547,-2.25 -1.5,-1.5 -2.25,-3.351 -2.25,-5.546 0,-2 0.75,-3.75 2.25,-5.25 1.5,-1.5 3.347,-2.25 5.547,-2.25 2.195,0 4.046,0.75 5.546,2.25 1.5,1.5 2.25,3.25 2.25,5.25 0,2.195 -0.75,4.046 -2.25,5.546 -1.5,1.5 -3.351,2.25 -5.546,2.25 z m 54.906,-35.093 c -1.805,-1 -3.008,-2.5 -3.61,-4.5 -0.593,-2 -0.39,-4 0.61,-6 1.195,-1.805 2.797,-3.008 4.797,-3.61 2,-0.593 4,-0.293 6,0.907 1.8,1 2.953,2.546 3.453,4.64 0.5,2.102 0.25,4.055 -0.75,5.86 -1.211,2 -2.813,3.195 -4.813,3.593 -2,0.407 -3.898,0.11 -5.687,-0.89 z m -38.406,27.297 c 0,4 0.898,7.546 2.703,10.64 1.8,3.102 4.203,5.754 7.203,7.953 l -6,9.61 c -3.406,-2.407 -6.313,-5.309 -8.719,-8.703 -2.398,-3.399 -4.094,-7.094 -5.094,-11.094 2.801,-1.805 4.203,-4.606 4.203,-8.406 0,-3.399 -1.402,-6.2 -4.203,-8.407 2.207,-7.793 6.813,-14.293 13.813,-19.5 l 6,9.61 c -3,2.195 -5.403,4.843 -7.203,7.937 -1.805,3.102 -2.703,6.555 -2.703,10.36 z m 22.5,22.796 c 6,0 11.097,-2 15.296,-6 4.196,-4 6.598,-8.902 7.204,-14.703 l 11.093,0.313 c -0.398,4.195 -1.496,8.144 -3.297,11.844 -1.804,3.695 -4.101,6.945 -6.89,9.75 -3,-1 -6.106,-0.805 -9.313,0.593 -3.199,2 -4.898,4.602 -5.093,7.813 -2.399,0.789 -5.399,1.187 -9,1.187 -5.399,0 -10.297,-1.199 -14.704,-3.593 l 5.407,-9.297 c 3.195,1.394 6.297,2.093 9.297,2.093 z m 0,-45.296 c -3,0 -6.102,0.695 -9.297,2.093 l -5.407,-9.297 c 4.407,-2.398 9.305,-3.593 14.704,-3.593 3.601,0 6.601,0.398 9,1.203 0.195,3.195 1.894,5.797 5.093,7.797 3.207,1.394 6.313,1.593 9.313,0.593 2.789,2.801 5.086,6.051 6.89,9.75 1.801,3.696 2.899,7.649 3.297,11.86 l -11.093,0.297 c -0.606,-5.805 -3.008,-10.703 -7.204,-14.703 -4.199,-4 -9.296,-6 -15.296,-6 z m 15.906,50.093 c 1.789,-1.199 3.687,-1.547 5.687,-1.047 2,0.5 3.602,1.75 4.813,3.75 1,1.801 1.25,3.75 0.75,5.844 -0.5,2.102 -1.653,3.656 -3.453,4.656 -2,1 -4,1.196 -6,0.594 -2,-0.594 -3.602,-1.695 -4.797,-3.297 -1,-2.199 -1.203,-4.25 -0.61,-6.156 0.602,-1.898 1.805,-3.344 3.61,-4.344 z" />
<path style="fill:#ffeeaa; fill-opacity:1; fill-rule:nonzero; stroke:none" d="m 29.992,525.309 0.735,12.328 5.437,-0.328 -0.734,-12.329 z" />
<path style="fill:#ffeeaa; fill-opacity:1; fill-rule:nonzero; stroke:none" d="m 32.141,549.469 2.203,12.14 5.359,-0.984 -2.203,-12.141 z" />
<path style="fill:#ffeeaa; fill-opacity:1; fill-rule:nonzero; stroke:none" d="m 37.188,573.195 3.671,11.797 5.203,-1.625 -3.671,-11.797 z" />
<path style="fill:#ffeeaa; fill-opacity:1; fill-rule:nonzero; stroke:none" d="m 61.973,597.547 c -1.606,-3.586 -3.977,-5.805 -7.11,-6.656 -3.144,-0.844 -6.843,-0.309 -11.093,1.609 -2.102,0.945 -3.844,2.078 -5.219,3.391 -1.375,1.32 -2.399,2.754 -3.078,4.297 -0.676,1.539 -0.989,3.144 -0.938,4.812 0.043,1.664 0.438,3.336 1.188,5.016 0.406,0.906 0.851,1.687 1.328,2.343 0.469,0.657 0.929,1.211 1.375,1.672 0.437,0.457 0.851,0.821 1.234,1.094 0.375,0.281 0.664,0.488 0.86,0.625 l 3.421,-3.125 c -0.687,-0.461 -1.375,-1.07 -2.062,-1.828 -0.688,-0.75 -1.289,-1.699 -1.813,-2.844 -0.351,-0.793 -0.554,-1.633 -0.609,-2.515 -0.051,-0.887 0.133,-1.774 0.547,-2.657 0.406,-0.886 1.09,-1.773 2.047,-2.656 0.949,-0.875 2.258,-1.695 3.922,-2.453 2.898,-1.305 5.339,-1.805 7.328,-1.5 1.992,0.301 3.492,1.586 4.515,3.859 0.582,1.313 0.922,2.469 1.016,3.469 0.094,1 0.102,1.82 0.031,2.469 l 4.563,-0.531 c 0.113,-0.907 0.078,-2.055 -0.11,-3.438 -0.179,-1.375 -0.625,-2.859 -1.343,-4.453 z" />
<path style="fill:#ffeeaa; fill-opacity:1; fill-rule:nonzero; stroke:none" d="m 61.848,632.645 -3.5,-5.813 14.156,-8.609 -2.891,-4.782 -14.156,8.61 -3.5,-5.781 -3.922,2.375 9.891,16.375 z" />
<path style="fill:#ffeeaa; fill-opacity:1; fill-rule:nonzero; stroke:none" d="m 78.277,644.105 c -1.488,1.176 -2.941,1.844 -4.359,2 -1.414,0.165 -2.598,-0.355 -3.547,-1.562 -0.25,-0.324 -0.504,-0.695 -0.766,-1.109 -0.269,-0.407 -0.488,-0.746 -0.656,-1.016 l 9.125,-7.188 c 0.406,0.133 0.848,0.391 1.328,0.766 0.489,0.375 0.922,0.801 1.297,1.281 0.813,1.039 0.992,2.141 0.547,3.297 -0.449,1.156 -1.437,2.332 -2.969,3.531 z m 3.328,4.563 c 1.282,-1.012 2.344,-2.078 3.188,-3.203 0.844,-1.125 1.43,-2.262 1.766,-3.406 0.343,-1.149 0.406,-2.305 0.187,-3.469 -0.219,-1.156 -0.758,-2.281 -1.609,-3.375 -0.867,-1.117 -2.039,-2.043 -3.516,-2.781 l 6.266,-4.938 -3.407,-4.359 -21.906,17.25 c 0.367,1.008 0.922,2.16 1.672,3.453 0.75,1.301 1.57,2.523 2.453,3.672 2.024,2.57 4.352,3.929 6.985,4.078 2.625,0.144 5.265,-0.828 7.921,-2.922 z" />
<path style="fill:#ffeeaa; fill-opacity:1; fill-rule:nonzero; stroke:none" d="m 84.449,651.586 c -1.32,1.32 -2.273,2.687 -2.859,4.094 -0.594,1.406 -0.895,2.769 -0.906,4.093 -0.02,1.321 0.226,2.579 0.734,3.766 0.512,1.188 1.215,2.227 2.109,3.125 2.2,2.207 4.524,3.227 6.969,3.063 2.445,-0.157 4.922,-1.485 7.422,-3.985 0.25,-0.262 0.504,-0.539 0.766,-0.828 0.269,-0.281 0.472,-0.516 0.609,-0.703 l -9.688,-9.719 c 0.981,-0.98 2.149,-1.351 3.516,-1.109 1.375,0.238 2.695,1 3.969,2.281 0.781,0.781 1.437,1.613 1.969,2.5 0.539,0.883 0.972,1.656 1.296,2.313 l 3.891,-2.813 c -0.449,-0.906 -0.976,-1.824 -1.578,-2.75 -0.606,-0.93 -1.383,-1.871 -2.328,-2.828 -1.274,-1.274 -2.578,-2.246 -3.922,-2.922 -1.336,-0.68 -2.68,-1.047 -4.031,-1.109 -1.356,-0.063 -2.696,0.187 -4.032,0.75 -1.332,0.57 -2.632,1.5 -3.906,2.781 z m 8.438,11.594 c -0.407,0.406 -0.844,0.738 -1.313,1 -0.469,0.269 -0.969,0.437 -1.5,0.5 -0.539,0.07 -1.082,0.015 -1.625,-0.172 -0.539,-0.18 -1.078,-0.531 -1.609,-1.063 -0.5,-0.511 -0.848,-1.043 -1.047,-1.593 -0.207,-0.543 -0.281,-1.079 -0.219,-1.61 0.055,-0.531 0.203,-1.062 0.453,-1.594 0.243,-0.523 0.539,-1.007 0.891,-1.453 z" />
<path style="fill:#ffeeaa; fill-opacity:1; fill-rule:nonzero; stroke:none" d="m 104.984,678.91 c 0.75,-1.062 1.496,-2.133 2.235,-3.203 0.75,-1.062 1.426,-2.141 2.031,-3.234 0.602,-1.086 1.082,-2.172 1.438,-3.266 0.363,-1.094 0.531,-2.18 0.5,-3.25 -0.024,-1.062 -0.266,-2.105 -0.735,-3.125 -0.469,-1.023 -1.246,-2.012 -2.328,-2.969 l -3.422,3.141 c 0.68,0.844 1.063,1.617 1.156,2.328 0.086,0.719 0.059,1.422 -0.078,2.109 -0.156,0.789 -0.445,1.618 -0.875,2.485 -0.437,0.875 -0.937,1.754 -1.5,2.64 -0.562,0.895 -1.164,1.766 -1.812,2.61 -0.645,0.851 -1.254,1.644 -1.828,2.375 l -1.5,1.922 10.89,8.562 13.032,-16.672 -4.344,-3.406 -10.203,13.047 z" />
<path style="fill:#ffeeaa; fill-opacity:1; fill-rule:nonzero; stroke:none" d="m 124.891,688.609 c 0.238,1.625 0.445,3.348 0.625,5.172 0.175,1.832 0.265,3.469 0.265,4.907 l 5.735,3.484 c -0.106,-0.875 -0.227,-1.844 -0.36,-2.906 -0.125,-1.063 -0.265,-2.153 -0.422,-3.266 -0.156,-1.105 -0.328,-2.188 -0.515,-3.25 -0.18,-1.055 -0.352,-2.016 -0.516,-2.891 1.008,-0.242 2.129,-0.558 3.359,-0.953 1.239,-0.386 2.477,-0.82 3.719,-1.297 1.239,-0.48 2.414,-0.996 3.531,-1.547 1.114,-0.542 2.067,-1.062 2.86,-1.562 l -5.469,-3.312 c -0.687,0.457 -1.523,0.941 -2.5,1.453 -0.98,0.507 -1.984,0.984 -3.015,1.421 -1.032,0.446 -2.059,0.844 -3.079,1.188 -1.023,0.352 -1.906,0.613 -2.656,0.781 l 5.156,-8.547 -4.781,-2.906 -10.937,18.11 4.781,2.906 z" />
<path style="fill:#ffeeaa; fill-opacity:1; fill-rule:nonzero; stroke:none" d="m 152.324,693.059 c 0.539,0.238 1.067,0.484 1.578,0.734 0.52,0.25 0.961,0.488 1.328,0.719 l -2,4.437 c -0.343,-0.094 -0.761,-0.23 -1.25,-0.406 -0.492,-0.168 -0.929,-0.336 -1.312,-0.5 -0.512,-0.242 -1,-0.508 -1.469,-0.797 -0.461,-0.293 -0.84,-0.605 -1.14,-0.937 -0.293,-0.325 -0.481,-0.688 -0.563,-1.094 -0.086,-0.406 -0.012,-0.856 0.219,-1.344 0.383,-0.875 0.988,-1.351 1.812,-1.422 0.821,-0.074 1.754,0.129 2.797,0.61 z m -7.703,15.953 c 1.582,0.718 2.977,1.129 4.188,1.234 1.218,0.102 2.289,-0.039 3.218,-0.422 0.938,-0.386 1.758,-1 2.469,-1.844 0.707,-0.843 1.332,-1.871 1.875,-3.078 l 5.156,-11.484 c -0.668,-0.5 -1.679,-1.188 -3.031,-2.063 -1.344,-0.875 -2.918,-1.718 -4.719,-2.531 -1.23,-0.562 -2.398,-0.961 -3.5,-1.187 -1.093,-0.231 -2.109,-0.258 -3.047,-0.078 -0.937,0.187 -1.777,0.597 -2.515,1.234 -0.742,0.633 -1.375,1.547 -1.906,2.734 -0.5,1.114 -0.704,2.149 -0.61,3.11 0.094,0.968 0.406,1.851 0.938,2.656 0.519,0.801 1.211,1.519 2.078,2.156 0.863,0.633 1.812,1.188 2.844,1.656 1.32,0.594 2.535,1.008 3.64,1.25 l -0.265,0.61 c -0.438,0.957 -1.102,1.625 -1.985,2 -0.887,0.375 -2.07,0.226 -3.547,-0.438 -0.961,-0.437 -1.851,-0.929 -2.672,-1.468 -0.832,-0.532 -1.484,-1.016 -1.953,-1.454 l -2.515,3.75 c 0.543,0.5 1.351,1.094 2.422,1.782 1.062,0.695 2.211,1.32 3.437,1.875 z" />
<path style="fill:#ffeeaa; fill-opacity:1; fill-rule:nonzero; stroke:none" d="m 164.789,709.191 11.781,3.672 1.61,-5.203 -11.782,-3.672 z" />
<path style="fill:#ffeeaa; fill-opacity:1; fill-rule:nonzero; stroke:none" d="m 188.102,715.684 12.14,2.218 0.985,-5.359 -12.141,-2.219 z" />
<path style="fill:#ffeeaa; fill-opacity:1; fill-rule:nonzero; stroke:none" d="m 212.078,719.352 12.313,0.671 0.297,-5.453 -12.313,-0.672 z" />
<path style="fill:#c87137; fill-opacity:1; fill-rule:nonzero; stroke:none" d="m 570.039,224.695 -0.734,-12.047 -5.563,0.297 0.735,12.047 z" />
<path style="fill:#c87137; fill-opacity:1; fill-rule:nonzero; stroke:none" d="m 567.945,201.34 -2.187,-11.86 -5.485,0.907 2.188,11.859 z" />
<path style="fill:#c87137; fill-opacity:1; fill-rule:nonzero; stroke:none" d="m 562.742,178.445 -3.609,-11.515 -5.25,1.515 3.609,11.516 z" />
<path style="fill:#c87137; fill-opacity:1; fill-rule:nonzero; stroke:none" d="m 555.082,156.211 -4.984,-10.984 -5.047,2.078 4.984,10.984 z" />
<path style="fill:#c87137; fill-opacity:1; fill-rule:nonzero; stroke:none" d="m 551.18,128.195 -4.641,2.578 -1.062,-1.734 c -0.856,-1.406 -1.766,-2.601 -2.735,-3.594 -0.969,-0.988 -2.015,-1.703 -3.14,-2.14 -1.118,-0.446 -2.313,-0.614 -3.594,-0.5 -1.27,0.117 -2.645,0.586 -4.125,1.406 -2.695,1.492 -4.238,3.391 -4.625,5.703 -0.383,2.313 0.324,4.949 2.125,7.906 0.531,0.875 1.199,1.868 2,2.969 0.805,1.094 1.679,2.133 2.625,3.109 l 23.984,-13.296 -8.015,-13.188 -4.016,2.219 z m -17.75,7.032 c -0.821,-1.352 -1.16,-2.582 -1.016,-3.688 0.137,-1.101 0.871,-2.023 2.203,-2.766 1.414,-0.781 2.645,-0.921 3.688,-0.421 1.039,0.492 2.054,1.554 3.047,3.187 l 0.968,1.578 -7.437,4.125 c -0.156,-0.187 -0.383,-0.476 -0.688,-0.875 -0.3,-0.406 -0.554,-0.785 -0.765,-1.14 z" />
<path style="fill:#c87137; fill-opacity:1; fill-rule:nonzero; stroke:none" d="m 530.984,120.133 c 1.52,-1.082 2.68,-2.254 3.485,-3.516 0.812,-1.258 1.32,-2.523 1.531,-3.797 0.207,-1.269 0.145,-2.504 -0.188,-3.703 -0.335,-1.195 -0.882,-2.281 -1.64,-3.25 -1.887,-2.394 -4.07,-3.679 -6.547,-3.859 -2.469,-0.176 -5.145,0.765 -8.031,2.828 -0.289,0.211 -0.594,0.434 -0.906,0.672 -0.313,0.23 -0.551,0.43 -0.719,0.594 l 8.281,10.578 c -1.137,0.804 -2.371,0.996 -3.703,0.578 -1.332,-0.414 -2.539,-1.317 -3.625,-2.703 -0.676,-0.852 -1.219,-1.739 -1.625,-2.657 -0.406,-0.914 -0.719,-1.707 -0.938,-2.375 l -4.312,2.172 c 0.312,0.93 0.703,1.875 1.172,2.844 0.461,0.961 1.093,1.961 1.906,3 1.086,1.387 2.25,2.492 3.5,3.313 1.242,0.824 2.531,1.355 3.875,1.593 1.344,0.243 2.727,0.18 4.156,-0.187 1.426,-0.363 2.867,-1.07 4.328,-2.125 z m -6.734,-12.188 c 0.469,-0.332 0.957,-0.593 1.469,-0.781 0.519,-0.195 1.051,-0.289 1.593,-0.281 0.54,0.012 1.067,0.14 1.579,0.39 0.519,0.243 1.004,0.649 1.453,1.219 0.437,0.555 0.711,1.106 0.828,1.656 0.125,0.543 0.117,1.071 -0.016,1.579 -0.125,0.511 -0.355,1 -0.687,1.468 -0.324,0.461 -0.699,0.883 -1.125,1.266 z" />
<path style="fill:#c87137; fill-opacity:1; fill-rule:nonzero; stroke:none" d="m 514.383,90.969 c -0.918,0.918 -1.84,1.84 -2.766,2.765 -0.918,0.93 -1.762,1.875 -2.531,2.844 -0.781,0.961 -1.43,1.938 -1.953,2.938 -0.531,1 -0.863,2.023 -1,3.062 -0.133,1.031 -0.035,2.074 0.297,3.125 0.336,1.055 0.968,2.121 1.906,3.203 l 3.953,-2.531 c -0.574,-0.914 -0.851,-1.723 -0.828,-2.422 0.019,-0.695 0.148,-1.375 0.391,-2.031 0.281,-0.738 0.703,-1.492 1.265,-2.266 0.571,-0.769 1.207,-1.547 1.906,-2.328 0.696,-0.781 1.438,-1.535 2.219,-2.266 0.789,-0.726 1.531,-1.406 2.219,-2.031 l 1.812,-1.64 -9.765,-9.829 -15.703,14.219 3.89,3.922 12.297,-11.125 z" />
<path style="fill:#c87137; fill-opacity:1; fill-rule:nonzero; stroke:none" d="m 495.77,79.082 c -0.012,-1.582 0.023,-3.258 0.109,-5.031 0.094,-1.77 0.25,-3.344 0.469,-4.719 l -5.235,-4.172 c -0.031,0.844 -0.054,1.781 -0.078,2.813 -0.031,1.031 -0.051,2.089 -0.062,3.172 -0.008,1.074 0,2.132 0.031,3.171 0.031,1.043 0.07,1.993 0.109,2.844 -1.062,0.063 -2.238,0.188 -3.531,0.375 -1.289,0.188 -2.594,0.414 -3.906,0.672 -1.313,0.262 -2.567,0.57 -3.766,0.922 -1.195,0.355 -2.234,0.715 -3.109,1.078 l 5,3.984 c 0.75,-0.332 1.656,-0.664 2.719,-1 1.054,-0.343 2.136,-0.644 3.25,-0.906 1.105,-0.258 2.195,-0.473 3.265,-0.64 1.063,-0.176 1.992,-0.29 2.781,-0.344 l -6.437,7.359 4.375,3.485 13.641,-15.579 -4.375,-3.484 z" />
<path style="fill:#c87137; fill-opacity:1; fill-rule:nonzero; stroke:none" d="m 469.031,70.695 c -0.5,-0.312 -0.984,-0.625 -1.453,-0.937 -0.476,-0.313 -0.879,-0.602 -1.203,-0.875 l 2.687,-3.922 c 0.336,0.137 0.731,0.324 1.188,0.562 0.461,0.231 0.867,0.461 1.219,0.688 0.48,0.305 0.929,0.633 1.343,0.984 0.418,0.344 0.75,0.696 1,1.047 0.243,0.356 0.372,0.731 0.391,1.125 0.024,0.399 -0.117,0.813 -0.422,1.25 -0.531,0.781 -1.211,1.149 -2.047,1.094 -0.832,-0.063 -1.734,-0.399 -2.703,-1.016 z m 10.235,-14.031 c -1.469,-0.914 -2.805,-1.516 -4,-1.797 -1.207,-0.289 -2.305,-0.32 -3.297,-0.094 -0.989,0.231 -1.907,0.696 -2.75,1.391 -0.844,0.699 -1.629,1.578 -2.36,2.641 l -6.968,10.156 c 0.586,0.574 1.48,1.383 2.687,2.422 1.211,1.043 2.652,2.09 4.328,3.14 1.149,0.719 2.25,1.274 3.313,1.657 1.062,0.386 2.086,0.562 3.062,0.531 0.969,-0.031 1.875,-0.289 2.719,-0.781 0.832,-0.489 1.609,-1.258 2.328,-2.313 0.676,-0.988 1.039,-1.945 1.094,-2.875 0.062,-0.937 -0.11,-1.828 -0.516,-2.672 -0.398,-0.843 -0.98,-1.632 -1.75,-2.375 -0.758,-0.738 -1.625,-1.41 -2.594,-2.015 -1.218,-0.758 -2.363,-1.336 -3.437,-1.735 l 0.375,-0.547 c 0.586,-0.851 1.352,-1.39 2.297,-1.609 0.949,-0.219 2.109,0.106 3.484,0.969 0.883,0.562 1.696,1.164 2.438,1.797 0.75,0.636 1.32,1.203 1.719,1.703 l 3.124,-3.188 c -0.46,-0.57 -1.171,-1.269 -2.14,-2.093 -0.961,-0.821 -2.012,-1.594 -3.156,-2.313 z" />
<path style="fill:#c87137; fill-opacity:1; fill-rule:nonzero; stroke:none" d="m 459.195,53.363 -11.14,-5.312 -2.469,4.719 11.141,5.312 z" />
<path style="fill:#c87137; fill-opacity:1; fill-rule:nonzero; stroke:none" d="m 436.98,43.441 -11.671,-4.015 -1.875,4.984 11.671,4.016 z" />
<path style="fill:#c87137; fill-opacity:1; fill-rule:nonzero; stroke:none" d="m 413.566,36.066 -12.296,-2.734 -1.266,5.188 12.297,2.734 z" />
<path style="fill:#c87137; fill-opacity:1; fill-rule:nonzero; stroke:none" d="m 389.539,31.406 -12.531,-1.344 -0.625,5.297 12.531,1.344 z" />
<path style="fill:#c87137; fill-opacity:1; fill-rule:nonzero; stroke:none" d="M 60,701.25 C 60,695.035 54.965,690 48.75,690 c -6.215,0 -11.25,5.035 -11.25,11.25 0,6.215 5.035,11.25 11.25,11.25 6.215,0 11.25,-5.035 11.25,-11.25 z" />
<path style="fill:#ffeeaa; fill-opacity:1; fill-rule:nonzero; stroke:none" d="m 562.5,48.75 c 0,-6.215 -5.035,-11.25 -11.25,-11.25 -6.215,0 -11.25,5.035 -11.25,11.25 0,6.215 5.035,11.25 11.25,11.25 6.215,0 11.25,-5.035 11.25,-11.25 z" />
</g>
</svg>
