<?xml version="1.0" encoding="UTF-8" standalone="no"?>
<svg xmlns="http://www.w3.org/2000/svg" version="1.1" id="FreeDEB" width="800" height="800" viewBox="0 0 800 800">
<path style="fill:#f0007f; fill-opacity:1" d="M 40,400 C 40,598.82133 201.17866,760 400,760 598.82133,760 760,598.82133 760,400 760,201.17866 598.82133,39.999999 400,39.999999 201.17866,39.999999 39.999999,201.17866 40,400 Z" />
<path style="fill:#f0007f; stroke-width:24; stroke-miterlimit:4; stroke:#ffffff; stroke-opacity:1; fill-opacity:1" d="M 719.99999,400 C 719.99999,576.72933 576.72933,720 400,720 223.27067,720 80.00001,576.72933 80.00001,400 80.00001,223.27066 223.27067,80.000001 400,80.000001 576.72933,80.000001 719.99999,223.27066 719.99999,400 Z" />
<path style="fill:#ffffff; fill-opacity:1; stroke:none" d="m 417.11626,650 c -71.7769,-25.80911 -114.4104,-57.48496 -161.1546,-128.17462 -11.4707,-19.47552 -32.563,-62.97489 -31.7642,-119.67026 -1.867,-56.56074 26.729,-121.73359 80.0971,-156.51331 51.5371,-36.70842 118.0455,-37.25563 157.60931,-22.75881 40.8114,15.14259 57.3622,40.36851 57.8289,39.16643 -1.2483,0.31384 21.8643,19.74459 32.1682,62.04188 11.4796,40.65556 -0.18,108.00826 -56.2852,135.63822 -25.8045,13.82408 -59.319,16.32697 -85.59921,6.44104 -26.2801,-10.59447 -45.3261,-33.85571 -51.7077,-58.15751 -13.8491,-53.65436 26.8816,-83.39242 44.8505,-86.44253 73.10531,-24.36467 110.12901,89.97698 24.6287,99.66552 38.97151,13.0076 79.14581,-27.00209 71.50761,-67.68463 -1.5438,-40.72742 -50.8731,-81.18558 -105.28231,-64.58075 -14.2082,3.92025 -35.7224,13.88684 -52.5603,36.30472 -17.2689,22.28346 -25.1044,57.20681 -16.129,91.15227 8.7511,34.13386 35.3634,66.80549 72.432,81.45463 37.44581,13.80609 79.13681,9.85895 113.56681,-8.04669 73.5,-36.34071 88.2108,-124.89134 73.6077,-173.61158 -12.8886,-52.36243 -41.35,-76.3414 -39.8779,-76.70911 -0.529,1.42585 -21.0027,-29.68449 -71.5974,-48.56792 -49.47271,-18.03128 -126.64401,-16.75744 -188.36831,26.52654 -63.1872,40.51203 -97.4466,120.11883 -94.9605,184.2779 -0.852,65.15475 23.444,115.02339 36.7007,137.19021 53.4401,81.45463 114.6708,106.91373 190.28,110.9865" />
</svg>
