<?xml version="1.0" encoding="UTF-8" standalone="no"?>
<svg xmlns="http://www.w3.org/2000/svg" version="1.1" id="Irssi" width="800" height="800" viewBox="0 0 800 800">
<path style="fill:#ff6000; stroke:none; fill-opacity:1" d="M 40,400 C 40,598.82133 201.17866,760 400,760 598.82133,760 760,598.82133 760,400 760,201.17866 598.82133,39.999999 400,39.999999 201.17866,39.999999 39.999999,201.17866 40,400 Z" />
<path style="fill:#ff6000; stroke-width:24; stroke-miterlimit:4; stroke-dasharray:none; stroke:#ffffff; stroke-opacity:1" d="M 719.99999,400 C 719.99999,576.72933 576.72933,720 400,720 223.27067,720 80.00001,576.72933 80.00001,400 80.00001,223.27066 223.27067,80.000001 400,80.000001 576.72933,80.000001 719.99999,223.27066 719.99999,400 Z" />
<path style="fill:#ffffff; stroke-width:1.33333325" d="m 360.77091,575.71889 c -65.12,-29.52533 -93.192,-77.97866 -84.104,-130.86933 18.51067,-70.02666 60.10934,-99.64133 86.584,-167.35999 9.00933,-23.448 8.80133,-35.33334 -0.82933,-46.83334 -7.97867,-9.53066 -7.71867,-11.62533 1.28133,-10.292 18.65733,2.75067 47.15733,20.71867 72.704,45.82934 44.52,47.71866 87.14,113.67066 88.59333,176.01999 -0.0107,54.41733 -16.708,98.78667 -88.13066,137.23466 -1.06667,-1.02133 8.72933,-11.14133 19.12533,-27.37466 6.00533,-10 8.29733,-12.84933 7.208,-23.21867 -11.244,6.932 -24.74933,16.572 -36.104,17.47867 -7.70267,0.56267 -9.75467,0.136 -12.31733,-2.55733 -4.88,-5.12 -5.14134,-14.10934 -0.984,-33.864 5.348,-25.448 5.14,-54.88534 -0.54667,-77.26667 -2.78667,-10.95733 -4.87067,-16.104 -6.64667,-16.432 -5.77066,-1.06266 -34,38.41733 -49.26533,68.912 -12.19333,24.344 -15.552,42.072 -10.24,54.03067 1.256,2.81733 8.808,11.032 16.78667,18.24 14.136,12.76 16.636,16.93733 12.5,20.86399 -3.01067,2.86 -6.33867,2.31334 -15.61467,-2.54133 z" />
</svg>
