<?xml version="1.0" encoding="UTF-8" standalone="no"?>
<svg xmlns="http://www.w3.org/2000/svg" xml:space="preserve" width="800" viewBox="0 0 800 800" version="1.1" id="Mint" height="800">
<circle r="360" cy="400" cx="400" style="fill:#90da55; fill-opacity:1" />
<g transform="matrix(1.4062499,0,0,1.4062499,231.50114,192.22659)">
<path style="display:inline; fill:#ffffff; fill-opacity:1; fill-rule:evenodd" d="M 7.6187232,-1.5833481 C -12.610582,-1.5833518 -29.019342,11.481809 -29.511924,34.943351 l 0.130774,161.429259 c 1.01e-4,55.62696 49.720869,100.71072 110.975714,100.71072 H 232.80212 c 19.38887,0 36.35264,-12.02508 36.35264,-30.54687 V 100.02577 c 0,-55.626856 -49.69595,-100.7106143 -111.01923,-100.7106143 H 94.496684 v -0.171176 z m -2.565122,37.1781631 30.3809488,9.9e-5 1.01e-4,153.034006 c 0,20.46906 14.231882,36.3654 30.904046,36.3654 l 103.609233,0.42779 c 21.60439,0 38.44473,-14.62647 38.44473,-31.95871 l -0.1742,-81.24454 c 0,-5.27273 -1.7436,-9.37406 -5.57937,-13.177021 -3.84844,-3.81493 -7.95954,-5.56182 -13.25083,-5.56182 -5.40215,0 -9.39413,1.73792 -13.25081,5.56172 -3.83518,3.803361 -5.57927,7.904391 -5.57927,13.177121 l -1e-4,69.52205 h -32.12444 v -69.52215 c -1e-4,-5.27263 -1.78722,-9.37406 -5.6229,-13.176921 -3.85638,-3.8242 -7.84866,-5.56182 -13.25082,-5.56182 -5.29118,0 -9.35916,1.74659 -13.20719,5.56182 -3.8359,3.802661 -5.62291,7.904291 -5.62291,13.177021 l -1e-4,69.52205 H 68.605284 v -69.52205 c -1e-4,-13.756561 5.18976,-25.959331 15.03794,-35.723593 9.8527,-9.769791 22.115236,-14.802875 35.916696,-14.802875 13.54172,0 25.31342,4.993521 34.8706,14.032827 9.58522,-9.054204 21.41049,-14.032827 34.95774,-14.032827 13.80147,0 26.0637,5.03338 35.9168,14.802875 9.84848,9.764162 15.03794,21.966932 15.03794,35.723593 l 0.13078,86.80635 c -1.51844,14.53343 -7.794,27.42752 -18.4815,38.20503 h -0.0423 c -12.56609,12.55676 -28.12512,19.03829 -45.85493,19.03829 l -115.378018,-10e-5 v -0.55615 C 46.5959,254.2301 34.030512,248.2107 23.579927,238.08593 11.353184,226.1312 5.0550092,211.34854 5.0550092,194.49016 V 35.594815 Z" />
</g>
</svg>
