<?xml version="1.0" encoding="UTF-8" standalone="no"?>
<svg xmlns="http://www.w3.org/2000/svg" version="1.1" id="Mutt" width="800" height="800" viewBox="0 0 800 800">
<circle style="fill-opacity:1; stroke:none; stroke-width:30.30335045; stroke-linecap:square; stroke-linejoin:miter; stroke-miterlimit:4; stroke-dasharray:30.30335098, 60.60670195000001570; stroke-dashoffset:0; stroke-opacity:0.98924734; paint-order:markers fill stroke; fill:#111122" id="path4491" cx="400" cy="400" r="360" />
<path style="fill:#ffffff; fill-opacity:1; stroke-width:1.08542216" d="m 281.9075,647.75723 c -6.3728,-3.00346 -18.36152,-16.08438 -35.24662,-38.45765 -24.42773,-32.3675 -27.97834,-39.42282 -26.21783,-52.09648 1.70547,-12.27735 7.3472,-20.62225 34.12329,-50.47303 19.17202,-21.37355 30.748,-35.80397 33.96917,-42.34539 4.11202,-8.35056 3.87089,-25.9448 -0.54832,-40.00695 -3.859,-12.2796 -7.07161,-17.18767 -18.28198,-27.93024 -12.53744,-12.01431 -14.84231,-15.52228 -18.27037,-27.80728 -5.04692,-18.08637 -9.65938,-52.66927 -7.23247,-54.22693 0.45903,-0.29461 8.4873,-0.88774 17.84063,-1.31806 10.57216,-0.48639 18.06179,-1.33722 19.7966,-2.24893 4.73273,-2.48725 12.37448,-12.28233 14.31453,-18.34819 2.26723,-7.08879 2.28273,-20.99403 0.0346,-31.06089 -2.04801,-9.17087 -18.73579,-62.02557 -19.37402,-61.36278 -0.25648,0.26635 0.98155,6.99123 2.75119,14.94416 5.42426,24.37729 7.57473,59.38824 4.06203,66.13247 -3.17479,6.09543 -11.69517,14.92706 -17.24564,17.87562 -12.14228,6.4503 -24.44283,2.90034 -38.79426,-11.19608 -15.75929,-15.47925 -26.00602,-31.33197 -27.42319,-42.42635 -0.85513,-6.6945 1.72385,-21.08208 5.26807,-29.3893 3.15615,-7.39769 11.77275,-17.1413 22.49073,-25.43239 9.83166,-7.60547 30.29864,-18.45355 34.81617,-18.45355 5.11673,0 11.06292,3.99293 20.8491,14.00037 14.76311,15.09692 18.47719,15.74338 37.56288,6.53796 18.81708,-9.07588 22.63556,-10.05027 38.84578,-9.91265 11.39631,0.0968 15.68643,0.635 24.24462,3.04182 10.98243,3.0886 20.68364,3.75154 24.5543,1.67793 1.27955,-0.6855 10.02153,-9.11344 19.4266,-18.72875 10.19942,-10.42742 18.26411,-17.78579 19.9845,-18.2342 10.26541,-2.67566 22.26347,5.09541 37.87704,24.53271 14.10224,17.55583 22.36408,34.58033 23.30872,48.03039 0.78869,11.22934 -2.69524,13.45743 -13.0614,8.3532 -11.11936,-5.47511 -20.15263,-18.89311 -33.20185,-49.31807 -3.7774,-8.8072 -7.12506,-16.27351 -7.43927,-16.59179 -0.83438,-0.84523 0.47551,9.63778 4.54796,36.39737 1.98399,13.03645 3.60723,24.14072 3.60723,24.67616 0,0.53544 -2.8501,-1.17118 -6.33355,-3.79248 -3.48346,-2.62132 -8.60008,-6.47727 -11.37025,-8.56879 -6.19914,-4.68042 -5.81093,-4.00263 7.56335,13.20478 20.80552,26.7685 25.38546,36.23247 31.0176,64.09472 1.51106,7.4752 4.14917,13.99521 13.20292,32.63052 13.0895,26.94208 15.57923,35.30756 14.61332,49.10069 -1.74382,24.90153 -12.77037,38.89597 -30.64704,38.89597 -8.1701,0 -9.60402,-1.0655 -10.53119,-7.82536 l -0.59192,-4.31555 -10.5847,8.9246 c -12.24303,10.32284 -19.35527,14.34416 -30.18545,17.0671 -6.65857,1.67411 -8.8174,1.76615 -15.30924,0.65277 -14.47537,-2.48258 -34.34934,-11.42679 -55.21513,-24.84933 -6.14567,-3.95339 -11.36499,-6.98959 -11.59848,-6.74711 -0.61254,0.63613 3.79228,6.27897 13.77449,17.64594 13.19787,15.02871 14.45973,16.92438 12.5713,18.88551 -0.88702,0.92117 -4.68752,1.92393 -8.80534,2.32325 -5.5703,0.54019 -7.98696,1.35116 -10.45604,3.50872 l -3.21128,2.80616 0.7317,9.46669 c 0.40243,5.20667 2.36226,24.89705 4.35518,43.75638 5.35607,50.68507 7.50578,77.78353 6.27217,79.06462 -0.57597,0.59814 -2.5827,1.40645 -4.45941,1.79625 -4.52214,0.93925 -7.06726,-1.94946 -16.75837,-19.02087 -15.5149,-27.33028 -32.04432,-39.48679 -56.98351,-41.90832 l -6.92323,-0.67222 12.56823,4.87759 c 6.91252,2.68269 14.34169,6.35725 16.50924,8.16572 13.977,11.66148 27.31729,39.27048 31.69024,65.58601 4.50823,27.12959 -6.57082,49.3485 -28.1277,56.40976 -9.13475,2.99221 -22.36985,2.99316 -28.71644,0.002 z M 480.58384,377.90312 c 5.54351,-3.51016 9.70572,-11.66454 11.44346,-22.41936 1.09667,-6.7873 -0.56065,-8.58792 -7.90452,-8.58792 -21.04252,0 -39.44876,6.96339 -39.44876,14.92413 0,3.73813 11.54658,14.86902 18.10691,17.45501 3.96984,1.56488 14.4391,0.75812 17.80291,-1.37186 z M 363.72548,316.23149 c 22.25376,-6.09741 25.94586,-12.71994 18.19877,-31.96135 -2.71074,-6.19911 -5.74869,-6.16592 -12.61305,-6.16592 -28.25182,4.55734 -28.05226,44.01056 -5.58572,38.12727 z m 109.88899,-25.36611 c 4.05237,-3.80853 1.49347,-16.22928 -4.82934,-23.44124 -1.25197,-1.42802 -4.07288,-3.55317 -6.2687,-4.72254 -11.48494,-6.11626 -15.51398,6.90553 -6.76501,21.86448 3.98665,6.81639 13.67686,10.23359 17.86305,6.2993 z m -91.19776,321.22254 c -2.19585,-7.94288 -3.94888,-20.85279 -9.57526,-70.5151 -5.58533,-49.29998 -9.11597,-84.37278 -9.11597,-90.55643 0,-4.01834 0.30612,-4.45682 4.25804,-6.09894 6.9828,-2.90153 14.56263,-3.20586 31.42323,-1.26164 29.06701,3.35175 37.04012,2.17629 52.8378,-7.78975 13.3134,-8.39883 26.59718,-12.25407 79.23614,-22.99601 33.93942,-6.92597 52.98141,-10.12031 55.15796,-9.25293 1.7653,0.70349 3.93367,18.59665 7.13388,58.86818 5.01363,63.09162 7.43461,111.48157 5.63524,112.63645 -3.06589,1.96779 -206.09009,42.7733 -212.81471,42.7733 -2.18751,0 -2.81036,-0.86608 -4.17635,-5.80713 z m 31.49002,-15.16475 c 25.82898,-4.8451 91.08938,-17.83917 133.69753,-26.62065 20.58419,-4.24239 37.71918,-7.71344 38.07776,-7.71344 1.32071,0 0.58323,-19.16635 -2.02233,-52.55799 -3.39112,-43.45905 -5.8189,-68.12124 -6.90646,-70.15778 -0.65561,-1.22769 -1.37606,-0.71747 -3.12375,2.21224 -2.49225,4.17786 -11.5144,23.09283 -20.67809,43.35172 -5.06667,11.20131 -6.22651,12.9969 -8.39515,12.9969 -1.38396,0 -8.96618,-4.03378 -16.84938,-8.96395 -17.89836,-11.1937 -21.83833,-13.28981 -23.5912,-12.55087 -1.895,0.79886 -8.17496,10.07347 -20.05082,29.61226 -5.48021,9.01635 -11.83279,18.59811 -14.11682,21.2928 -5.22479,6.16421 -6.56442,6.2104 -27.02688,0.93202 -12.41884,-3.20349 -15.68562,-3.70436 -16.96554,-2.60123 -4.18271,3.60499 -26.80792,45.25483 -30.25087,55.6876 -2.43587,7.38108 -2.87492,16.76266 -0.82471,17.62178 0.73226,0.30685 1.38583,0.59721 1.45235,0.64523 0.0666,0.048 7.975,-1.38595 17.57436,-3.18664 z" id="path4487" />
</svg>
