<?xml version="1.0" encoding="UTF-8" standalone="no"?>
<svg xmlns="http://www.w3.org/2000/svg" viewBox="0 0 800 800" height="800" width="800" id="Perl" version="1.1">
<circle r="360" cy="400" cx="400" id="path4489" style="fill:#701080; fill-opacity:1; stroke:none; stroke-width:27.79161072; stroke-linecap:square; stroke-linejoin:miter; stroke-miterlimit:4; stroke-dasharray:27.79161137, 55.58322272000000197; stroke-dashoffset:0; stroke-opacity:0.98924734; paint-order:markers fill stroke" />
<path id="path4487" d="m 398.97195,676.29301 c -4.28771,-4.72401 -5.66224,-9.8765 -5.16567,-19.36354 0.9428,-18.012 10.69325,-24.36863 17.27057,-11.25925 2.42253,4.82838 2.82296,6.68842 2.83331,13.16095 0.008,5.06617 -0.55215,8.99328 -1.70857,11.97643 -1.69541,4.37357 -6.21982,9.1924 -8.63074,9.1924 -0.67886,0 -2.74838,-1.66814 -4.5989,-3.70699 z m 33.08677,-3.1085 c -4.59684,-4.58222 -6.22401,-8.98149 -7.35125,-19.87515 -0.8553,-8.2657 -0.30977,-12.79221 1.54172,-12.79221 3.80728,0 15.48699,21.08342 16.29043,29.4064 0.37127,3.84601 0.13187,4.97208 -1.27465,5.99581 -2.87169,2.09011 -5.00019,1.45783 -9.20625,-2.73485 z m -78.42304,1.48843 c -1.25693,-1.2511 -0.58334,-6.07227 1.44996,-10.37792 2.9807,-6.31182 13.11036,-16.63762 19.25906,-19.632 4.84376,-2.35886 5.22119,-2.40656 7.46473,-0.94333 3.01466,1.96613 2.97148,2.80571 -0.49982,9.72026 -5.99546,11.94248 -23.50833,25.37934 -27.67393,21.23299 z M 323.0715,635.75153 c -18.83979,-6.0955 -54.93939,-26.23503 -78.20855,-43.63161 -32.67615,-24.42946 -51.74839,-51.28074 -63.11129,-88.85265 -5.45458,-18.03581 -6.72823,-27.16897 -6.75141,-48.41349 -0.0223,-20.40689 1.46996,-30.311 6.78701,-45.0469 12.33651,-34.18993 46.51812,-70.55013 127.77247,-135.91614 27.93187,-22.47012 37.44023,-31.12364 42.75023,-38.90679 7.4499,-10.91971 8.47498,-15.72847 10.57307,-49.59979 1.45409,-23.47469 2.50341,-31.1434 4.9009,-35.81739 1.09067,-2.1263 1.95501,-2.58518 4.8694,-2.58518 1.94884,0 4.53723,-0.69293 5.75198,-1.53983 2.72238,-1.89802 5.89812,-8.95167 8.09278,-17.97495 1.66602,-6.84983 2.67675,-8.63745 3.8318,-6.77717 0.34174,0.55039 1.43081,8.68886 2.42016,18.08551 2.73341,25.96137 4.77567,30.26757 15.92174,33.57166 11.97761,3.55058 13.49768,6.42084 15.69127,29.62875 2.2384,23.68219 4.27245,29.423 14.80553,41.78633 11.04686,12.9664 26.54957,25.47436 63.53066,51.25808 43.80584,30.54206 62.38603,45.5613 79.86416,64.55798 30.62114,33.2816 42.4514,60.35936 42.43658,97.1313 -0.0107,26.36545 -11.00596,60.14351 -29.00649,89.1089 -14.53229,23.38451 -39.23843,47.7647 -63.80864,62.96681 -13.94959,8.63094 -37.4281,18.88725 -51.12261,22.33234 -14.08809,3.54409 -25.34833,1.7789 -42.22655,-6.61954 -12.76191,-6.35022 -19.541,-11.22235 -28.23156,-20.29002 -18.82009,-19.63674 -30.48058,-46.78869 -36.32757,-84.5903 -2.67247,-17.278 -3.79043,-47.20185 -2.55097,-68.28093 1.6906,-28.7514 4.97356,-49.19045 14.45911,-90.01948 14.18616,-61.06215 17.67448,-88.03034 15.30545,-118.32621 l -0.61527,-7.86825 -4.60942,17.17051 c -7.47723,27.85336 -14.44651,44.23401 -37.18879,87.40886 -6.94675,13.18799 -14.75156,28.69443 -17.34401,34.45871 -13.45197,29.91033 -19.83674,58.4876 -19.87459,88.95577 -0.0458,36.84015 5.79218,59.50521 24.87006,96.5549 21.58739,41.92322 25.60247,51.1826 23.58517,54.39105 -2.99655,4.76596 -11.98648,-0.36439 -27.235,-15.54238 -22.6324,-22.5277 -44.05424,-51.4859 -56.20721,-75.98134 -10.1838,-20.52638 -13.77138,-38.56709 -12.89902,-64.86467 0.57507,-17.33561 2.08693,-25.84109 7.31259,-41.13945 7.1996,-21.07711 18.25058,-39.54415 44.01285,-73.54882 34.1756,-45.10975 50.0305,-74.08999 55.55124,-101.53885 1.68924,-8.3988 1.63991,-24.05538 -0.0775,-24.62114 -0.5721,-0.18846 -3.74929,3.7962 -7.06044,8.85477 -12.91629,19.73282 -25.15643,34.80188 -53.28614,65.6015 -47.62478,52.14507 -72.23956,83.82218 -84.11372,108.2472 -25.53415,52.52343 -18.48299,110.88095 19.23148,159.16531 10.97661,14.05294 23.57896,25.42805 49.2974,44.49673 34.55111,25.61756 39.80775,30.46795 36.85625,34.00785 -1.86829,2.24072 -8.91855,1.69277 -18.62454,-1.44755 z m 183.69354,-34.51616 c 7.70904,-5.03557 21.95203,-18.06517 31.89131,-29.17446 21.59607,-24.13824 38.27101,-55.6555 43.84177,-82.86522 2.35307,-11.49331 2.58859,-33.42635 0.4877,-45.41799 -5.82873,-33.26977 -29.38852,-70.65003 -65.05069,-103.21018 -14.46285,-13.20482 -88.21391,-71.73587 -89.24996,-70.83144 -0.19141,0.1671 11.31413,12.48632 25.56786,27.37605 37.64755,39.32738 44.02234,46.49055 57.22592,64.3032 20.62716,27.82765 34.6028,57.38765 39.50986,83.56773 2.49325,13.30195 2.29773,37.85913 -0.39864,50.06661 -2.97125,13.45201 -7.07209,24.9949 -13.77372,38.7698 -5.84902,12.0224 -9.90191,18.88672 -26.7031,45.22676 -4.65347,7.29546 -9.679,15.58035 -11.16787,18.41089 -4.59803,8.7415 -1.82791,10.07997 7.81956,3.77825 z" style="fill:#ffffff; fill-opacity:1; stroke-width:0.94224972" />
</svg>
