<?xml version="1.0" encoding="UTF-8" standalone="no"?>
<svg xmlns="http://www.w3.org/2000/svg" viewBox="0 0 800 800" height="800" width="800" id="Wine" version="1.1">
<path d="M 40,400 C 40,598.82133 201.17866,760 400,760 598.82133,760 760,598.82133 760,400 760,201.17866 598.82133,39.999999 400,39.999999 201.17866,39.999999 39.999999,201.17866 40,400 Z" style="fill:#b00000; fill-opacity:1" />
<path d="M 719.99999,400 C 719.99999,576.72933 576.72933,720 400,720 223.27067,720 80.00001,576.72933 80.00001,400 80.00001,223.27066 223.27067,80.000001 400,80.000001 576.72933,80.000001 719.99999,223.27066 719.99999,400 Z" style="fill:#b00000; stroke-width:24; stroke-miterlimit:4; stroke:#ffffff; stroke-opacity:1; fill-opacity:1" />
<path d="m 335.28044,582.23547 c 18.29543,-6.50402 41.94391,-11.04072 50.67631,-28.66934 0.71341,-10.27421 1.04428,-20.54842 1.07886,-30.82263 0.11425,-29.48737 -0.87086,-29.65485 -3.12967,-35.57171 -10.69759,-18.96127 -23.08651,-27.82348 -39.51721,-37.77396 -31.2044,-18.89947 -55.04209,-54.23665 -64.60462,-95.7704 -4.09566,-17.78906 -5.39908,-34.27523 -4.5264,-57.25172 1.59178,-41.90938 5.57724,-82.07859 9.34183,-94.156 L 285.29144,200 h 114.70855 114.70857 l 0.69189,2.21971 c 3.7646,12.07741 7.75005,52.24662 9.34184,94.156 0.87268,22.97649 -0.43074,39.46266 -4.5264,57.25172 -9.56253,41.53375 -33.40023,76.87092 -64.6047,95.7704 -12.31056,8.91538 -33.61413,23.2397 -39.51722,37.77396 -2.2588,5.91686 -2.82245,5.67968 -2.70819,35.16705 0.0346,10.27421 -0.0188,20.18446 0.65738,31.22729 8.09202,16.45725 37.15864,23.4505 50.67632,28.66934 8.57147,3.64184 21.48237,8.68983 21.35799,17.76453 h -86.07748 -86.07746 c -0.0649,-9.77197 15.82816,-15.38348 21.35791,-17.76453 z m 95.42742,-149.27668 c 24.11143,-9.89835 46.0111,-33.29678 57.90885,-62.05525 7.3459,-17.75604 11.04755,-35.57477 11.62235,-55.94693 0.5503,-19.50323 -1.89834,-80.89816 -3.48139,-87.28942 l -0.22757,-0.91885 H 399.99999 303.4699 l -0.22759,0.91885 c -1.58305,6.39126 -4.03167,67.78619 -3.48138,87.28942 0.57481,20.37216 4.27645,38.19089 11.62235,55.94693 11.89786,28.75871 33.81132,51.94284 57.90884,61.26662 17.4805,6.2835 46.30712,6.65358 61.41574,0.78863 z M 316.25,346.66668 c -4.10795,-15.98207 -3.75,-37.18255 -3.75,-40.00001 0,-0.18274 46.51247,0 87.49999,0 40.98752,0 87.50001,-0.18274 87.50001,0 0,3.00874 1.23448,20.85581 -3.75,40 -33.25726,115.55513 -148.62182,88.16762 -167.5,10e-6 z" style="fill:#ffffff" />
</svg>
