<?xml version="1.0" encoding="UTF-8" standalone="no"?>
<svg xmlns="http://www.w3.org/2000/svg" width="800" height="800" viewBox="0 0 800 800" id="Woff" version="1.1">
<circle r="360" cy="400" cx="400" style="fill:#0050c0; stroke-width:0; fill-opacity:1" />
<circle style="opacity:1; fill:#003090; fill-opacity:1; stroke-width:0" cx="400" cy="400" r="320" />
<path style="opacity:1; fill:#ffffff; fill-opacity:1" d="m 371.68562,623.43961 c -21.37713,-4.3617 -38.46381,-18.37168 -47.92497,-39.29533 -4.4298,-9.79648 -5.04304,-12.86378 -4.40291,-22.02272 0.68739,-9.83572 1.24481,-11.0798 7.36436,-16.43886 19.27165,-16.87693 23.42455,-21.39858 27.06156,-29.46451 3.57916,-7.93763 3.83801,-10.27545 2.89864,-26.17963 -0.9239,-15.64332 -0.63611,-18.41457 2.76193,-26.58646 7.84831,-18.87455 25.10434,-29.7893 61.59408,-38.95942 25.82341,-6.4896 44.83524,-6.58983 58.55596,-0.30879 10.97614,5.02471 22.69307,16.83209 28.48377,28.70374 7.81904,16.02993 26.87479,27.49676 45.83197,27.57942 24.21614,0.1057 37.80983,18.93493 36.32858,50.32062 -0.7758,16.43981 -5.41,26.80125 -17.00811,38.02852 -22.18331,21.47398 -99.82453,46.84051 -167.37025,54.68232 -17.37675,2.01736 -24.05474,2.00584 -34.17461,-0.058 z M 238.05791,510.21225 c -24.45537,-7.72646 -45.97899,-35.51641 -50.55605,-65.27474 -1.00913,-6.5613 -2.9096,-13.62979 -4.22348,-15.70777 -5.3505,-8.46332 -10.6712,-43.96179 -7.13723,-47.61904 1.91026,-1.97696 11.32223,8.25424 11.32931,12.31555 0.004,1.98024 1.57118,6.25691 3.48391,9.50372 l 3.4776,5.90331 5.51036,-5.52733 c 7.04915,-7.07073 15.70085,-9.65603 24.17604,-7.22429 6.67676,1.91572 9.2493,3.44238 33.47472,19.86567 8.27044,5.60676 21.05134,13.85334 28.40221,18.32573 7.35076,4.47239 15.5692,10.9841 18.26313,14.47048 10.17721,13.17088 7.43975,29.4045 -7.73201,45.85166 -7.31037,7.92511 -10.5849,10.04035 -20.27937,13.10015 -11.72205,3.69972 -29.835,4.65633 -38.18914,2.0169 z m 312.83754,-85.41879 c -23.89606,-8.9272 -33.90495,-21.77857 -30.30472,-38.91117 0.6713,-3.19477 6.43648,-16.59732 12.81139,-29.78342 6.3749,-13.18609 11.59816,-24.96693 11.60721,-26.17961 0.041,-5.48536 8.59466,-20.49415 14.20263,-24.92086 4.79157,-3.78222 8.09071,-4.89353 14.93799,-5.03166 l 8.78819,-0.1773 0.52079,-6.50098 c 0.2864,-3.57553 -0.7307,-9.23056 -2.26048,-12.56676 -3.3159,-7.2316 -2.02417,-17.22238 2.11678,-16.37191 3.96483,0.8143 16.89227,25.31444 19.96263,37.83331 1.50005,6.11612 5.21641,14.7554 8.25862,19.19839 9.74517,14.23235 13.35745,26.70767 13.457,46.47495 0.076,15.25093 -0.4627,18.66424 -4.27671,27.05227 -7.23259,15.90683 -19.18607,25.6485 -37.77872,30.78835 -11.43992,3.16252 -21.95216,2.86607 -32.04267,-0.9036 z M 306.35926,368.01521 c -18.40816,-4.72049 -30.49595,-14.53836 -37.78662,-30.69104 -8.24581,-18.26894 -6.52523,-50.50282 3.63375,-68.07762 3.05753,-5.28951 3.4866,-8.56581 3.19916,-24.43429 -0.3037,-16.76745 2.37735,-34.72166 5.69543,-38.141 2.56624,-2.64465 7.55166,7.34817 7.58758,15.209 0.022,4.4532 1.54056,11.52585 3.37802,15.71682 3.05068,6.9579 3.74355,7.51658 7.97367,6.42926 2.54791,-0.6547 9.39151,-1.62393 15.20798,-2.15348 10.3752,-0.9439 10.68019,-0.84709 16.1045,5.10459 6.02554,6.61185 9.57893,16.4304 9.57893,26.46805 0,8.24694 4.5188,17.2944 14.20821,28.44747 23.89736,27.50714 18.15489,51.9321 -15.15105,64.44337 -12.08625,4.54016 -20.77924,4.97414 -33.62956,1.67887 z m 105.56195,-31.11243 c -8.44282,-2.93334 -16.49841,-12.17908 -19.38948,-22.25415 -1.8624,-6.49015 -2.24918,-13.40295 -1.50791,-26.94966 0.9884,-18.06393 0.95311,-18.29254 -4.11724,-26.62662 -14.4399,-23.7347 -10.08422,-39.39572 12.294,-44.20352 l 9.39542,-2.01858 -1.1521,-5.52635 c -1.47561,-7.07839 -6.47958,-17.32409 -9.8927,-20.25562 -3.0317,-2.60393 -3.6336,-14.06835 -0.7386,-14.06835 3.27011,0 31.01943,30.18117 34.11404,37.10374 2.16745,4.84841 5.2185,7.75946 11.69008,11.15326 12.24013,6.41892 29.86955,25.20586 36.62469,39.0294 7.02662,14.37903 8.66874,30.8609 4.26393,42.79717 -3.74024,10.13553 -17.13403,24.36383 -27.44298,29.15293 -9.42294,4.37744 -34.80357,5.91058 -44.1412,2.66635 z" />
</svg>
