<?xml version="1.0" encoding="UTF-8" standalone="no"?>
<svg xmlns="http://www.w3.org/2000/svg" version="1.1" id="Bash" width="800" height="800" viewBox="0 0 800 800">
<g id="g1" transform="matrix(1.3333333,0,0,-1.3333333,0,800)">
<g id="g1.1">
<path d="M 42,452.375 V 148.238 L 300.215,295.867 V 600 Z" style="fill:#2e454f; fill-rule:evenodd" id="path1" />
<path d="M 300.215,600 559.5,451.762 V 147.629 L 300.215,295.867 Z" style="fill:#3f4f4c; fill-rule:evenodd" id="path2" />
<path d="M 42,148.238 301.285,0 559.5,147.629 300.215,295.867 Z" style="fill:#232e33; fill-rule:evenodd" id="path3" />
<path d="M 39,452.375 299.785,304.137 561,451.762 300.215,600 Z" style="fill:#2e454f; fill-rule:evenodd" id="path4" />
<path d="M 39,452.375 299.785,304.137 301.285,0 39.75,148.238 Z" style="fill:#232e33; fill-rule:evenodd" id="path5" />
<path d="M 299.785,304.137 301.285,0 561,147.629 v 304.133 z" style="fill:#3f4f4c; fill-rule:evenodd" id="path6" />
<path d="m 512.328,186.578 -62.242,-32.723 c -1.652,-0.839 -2.863,-1.793 -2.875,-3.531 v -14.308 c 0,-1.746 1.336,-2.477 2.988,-1.625 l 63.203,33.742 c 1.649,0.844 1.903,2.461 1.91,4.203 v 12.617 c 0,1.742 -1.335,2.469 -2.984,1.625" style="fill:#4fb351; fill-rule:evenodd" id="path7" />
<path d="m 387.84,295.43 c 1.89,0.91 3.445,-0.207 3.469,-2.555 l 0.195,-19.164 c 8.453,3.191 15.789,4.047 22.441,2.586 1.438,-0.363 2.078,-2.227 1.489,-4.442 l -4.442,-16.98 c -0.344,-1.285 -1.105,-2.582 -2.023,-3.391 -0.383,-0.355 -0.774,-0.636 -1.168,-0.82 -0.598,-0.289 -1.188,-0.383 -1.75,-0.273 -3.035,0.652 -10.25,2.152 -21.606,-3.309 -11.91,-5.727 -16.074,-15.551 -15.992,-22.848 0.098,-8.707 4.801,-11.347 21.047,-11.613 21.648,-0.34 30.996,-9.32 31.227,-30.023 0.218,-20.328 -11.207,-42.157 -28.692,-55.536 l 0.387,-18.968 c 0.023,-2.285 -1.539,-4.903 -3.43,-5.813 l -11.828,-6.469 c -1.898,-0.91 -3.453,0.211 -3.476,2.493 l -0.204,18.66 c -10.136,-4 -20.402,-4.965 -26.964,-2.461 -1.235,0.457 -1.766,2.187 -1.278,4.164 l 4.289,17.148 c 0.344,1.352 1.094,2.707 2.117,3.567 0.36,0.336 0.739,0.59 1.114,0.769 0.679,0.328 1.34,0.399 1.906,0.196 7.066,-2.262 16.109,-1.203 24.805,2.976 11.043,5.305 18.429,16 18.316,26.629 -0.109,9.641 -5.605,13.649 -18.973,13.742 -17.015,-0.047 -32.878,3.137 -33.14,26.922 -0.211,19.586 10.515,39.961 27.488,52.848 l -0.211,19.148 c -0.027,2.356 1.488,4.942 3.434,5.871 z" style="fill:#fdfdfd; fill-rule:evenodd" id="path8" />
<path d="m 48.066,285.434 v 49.812 l 14.875,-8.5 v -53.734 c 0,-3.95 0.957,-7.594 2.875,-10.938 1.914,-3.332 4.571,-5.972 7.969,-7.922 3.395,-1.937 6.051,-2.332 7.969,-1.187 1.914,1.137 2.875,3.68 2.875,7.625 v 53.734 l 14.875,-8.5 v -49.812 c 0,-10.719 -2.039,-17.344 -6.109,-19.875 -4.063,-2.539 -10.602,-1.239 -19.61,3.906 -8.969,5.137 -15.5,11.309 -19.594,18.516 -4.086,7.195 -6.125,16.156 -6.125,26.875 z" style="fill:#4fb351; fill-rule:nonzero" id="path9" />
<path d="m 111.062,299.211 15.969,-9.141 20.985,-69.375 v 57.375 l 13.109,-7.515 v -78.953 l -15.875,9.093 -21.094,69.438 v -57.375 l -13.094,7.5 z" style="fill:#4fb351; fill-rule:nonzero" id="path10" />
<path d="m 176.043,248.27 v 13.75 l 44.844,-25.657 v -13.75 l -14.985,8.578 v -51.453 l 14.985,-8.578 v -13.75 l -44.844,25.656 v 13.75 l 14.984,-8.562 v 51.453 z" style="fill:#4fb351; fill-rule:nonzero" id="path11" />
<path d="m 290.527,117.574 -15.375,8.797 -14.39,34.344 -14.313,-17.922 -15.39,8.797 22.093,27.453 -21.484,51.156 15.375,-8.797 13.719,-32.984 13.765,17.25 15.391,-8.797 -21.391,-26.625 z" style="fill:#4fb351; fill-rule:nonzero" id="path12" />
<path d="m 207.277,391.844 37.125,-21.25 9.563,5.468 c 4.582,2.626 6.445,5.227 5.594,7.813 -0.856,2.594 -4.618,5.801 -11.282,9.625 -6.781,3.875 -12.609,6.109 -17.484,6.703 -4.883,0.602 -9.535,-0.359 -13.953,-2.891 z m -48.906,28 29.156,-16.688 9.563,5.469 c 3.637,2.082 5.109,4.207 4.422,6.375 -0.696,2.164 -3.625,4.727 -8.782,7.688 -5.156,2.945 -9.679,4.632 -13.578,5.062 -3.906,0.426 -7.644,-0.387 -11.218,-2.438 z m -33.609,3.359 23.437,13.422 c 8.094,4.633 16.824,6.602 26.188,5.906 9.367,-0.699 19.312,-4.062 29.843,-10.093 8.063,-4.618 13.165,-8.915 15.297,-12.891 2.137,-3.969 1.246,-7.496 -2.672,-10.578 6.5,2.644 13.903,3.195 22.204,1.656 8.3,-1.531 17.375,-5.121 27.218,-10.766 12.102,-6.929 18.758,-13.156 19.969,-18.687 1.219,-5.524 -2.934,-11.012 -12.453,-16.469 l -23.438,-13.422 z" style="fill:#fdfdfd; fill-opacity:0.94117599; fill-rule:nonzero" id="path13" />
<path d="m 231.344,458.055 44.547,-33.266 13.609,7.781 z m -31.453,7.984 17.578,10.063 145.078,-60.579 -14.391,-8.234 -35.468,15.188 -19.266,-11.032 26.625,-20.25 -14.375,-8.234 z" style="fill:#fdfdfd; fill-opacity:0.94117599; fill-rule:nonzero" id="path14" />
<path d="m 333.691,462.035 c -12,-1.437 -21.898,-1.39 -29.703,0.141 -7.812,1.539 -16.14,4.847 -24.984,9.922 -11.375,6.507 -18.195,12.832 -20.469,18.968 -2.281,6.133 0.266,11.313 7.641,15.532 3.344,1.914 7.351,3.453 12.015,4.609 4.668,1.164 9.93,1.953 15.782,2.359 l 24.187,-13.859 c -6.832,0.383 -12.82,0.223 -17.969,-0.484 -5.144,-0.7 -9.281,-1.938 -12.406,-3.719 -3.469,-1.992 -4.922,-4.211 -4.359,-6.656 0.554,-2.438 3.062,-4.938 7.531,-7.5 3.481,-2 7.031,-3.266 10.656,-3.797 3.617,-0.524 8.938,-0.336 15.969,0.562 l 10.219,1.235 c 9.543,1.226 18.75,0.882 27.625,-1.032 8.875,-1.918 17.957,-5.539 27.25,-10.859 12.656,-7.25 19.937,-13.902 21.844,-19.953 1.906,-6.055 -1.528,-11.594 -10.297,-16.625 -3.606,-2.063 -7.965,-3.711 -13.078,-4.938 -5.106,-1.218 -10.805,-1.964 -17.094,-2.234 l -25.625,14.672 c 8.543,-0.5 15.758,-0.383 21.64,0.359 5.883,0.739 10.582,2.117 14.094,4.141 3.539,2.019 4.899,4.383 4.078,7.094 -0.812,2.707 -3.715,5.488 -8.703,8.343 -3.762,2.145 -7.703,3.649 -11.828,4.516 -4.125,0.875 -8.234,1.07 -12.328,0.594 z" style="fill:#fdfdfd; fill-opacity:0.94117599; fill-rule:nonzero" id="path15" />
<path d="m 304.91,526.168 14.391,8.25 47.781,-27.375 17.969,10.297 -47.781,27.375 14.375,8.219 125.421,-71.829 -14.375,-8.218 -55.781,31.937 -17.969,-10.297 55.782,-31.937 -14.391,-8.25 z" style="fill:#fdfdfd; fill-opacity:0.94117599; fill-rule:nonzero" id="path16" />
</g>
</g>
</svg>
