<?xml version="1.0" encoding="UTF-8" standalone="no"?>
<svg xmlns="http://www.w3.org/2000/svg" viewBox="0 0 600 600" height="600" width="600" id="LaTeX" version="1.1">
<linearGradient>
<stop offset="0" style="stop-color:#00ff00" />
</linearGradient>
<rect style="fill:#000000; stroke:#cccccc; stroke-width:10; stroke-linecap:round; stroke-linejoin:round; stroke-miterlimit:4" width="590" height="590" x="5" y="5" rx="20" ry="20" />
<path style="fill:#cccccc;stroke-width:1.091362" d="m 350.2008,536.08498 c -17.9736,-2.39645 -34.07762,-4.66552 -35.78667,-5.04237 -4.255,-0.93819 -4.82117,-3.78535 -3.23428,-16.26488 4.07023,-32.00942 4.70069,-33.63999 17.97398,-46.48851 9.38596,-9.08556 9.75293,-9.62791 10.38218,-15.34395 0.35874,-3.25902 2.61206,-11.39782 5.00736,-18.08621 3.1579,-8.81782 4.03589,-12.60534 3.19385,-13.77807 -1.90618,-2.65487 -24.81416,-11.3611 -29.94516,-11.38076 -2.49739,-0.009 -12.97673,2.48486 -23.28744,5.54317 -10.31069,3.0583 -21.90183,5.86779 -25.75805,6.24327 -8.79745,0.85662 -22.12514,-1.25134 -41.52653,-6.56805 -7.88601,-2.16105 -16.58872,-4.47804 -19.33936,-5.14887 -6.13372,-1.49586 -7.62652,-4.23576 -6.94959,-12.75527 0.56267,-7.08143 2.53221,-8.94833 8.53719,-8.09223 5.4847,0.78194 6.1242,-1.38739 2.95636,-10.02847 -3.12857,-8.53384 -7.14222,-12.31294 -16.14452,-15.20108 -27.47543,-8.81467 -38.06363,-13.22212 -36.03841,-15.00136 1.68442,-1.47979 30.05703,7.02698 51.008,15.29343 l 6.5185,2.57192 0.67066,7.02781 c 0.67477,7.07097 8.1586,28.63818 12.57873,36.24987 3.7043,6.37898 9.22698,4.54183 9.22698,-3.06942 0,-4.05631 1.06294,-6.28848 2.99455,-6.28848 2.02368,0 3.99167,3.22123 3.99167,6.53365 0,6.41848 5.21372,10.53662 9.2634,7.31689 2.06528,-1.642 3.0134,-4.16556 6.09697,-16.22809 2.50293,-9.79117 5.26485,-7.03317 5.48226,5.47445 0.12659,7.28363 2.22502,11.22413 5.9771,11.22413 3.37029,0 5.42714,-3.8206 6.28051,-11.66592 2.0427,-18.77963 5.47025,-21.81514 6.18399,-5.47675 0.56495,12.9321 0.91873,14.07387 4.36092,14.07387 8.49461,-0.31253 5.49725,-30.89067 3.93821,-35.75571 -1.70106,-4.28691 -10.26159,-9.87782 -55.73395,-36.4 -33.87913,-19.76031 -43.41561,-26.1343 -41.03497,-27.42689 1.80472,-0.9799 63.21498,33.5511 84.27447,47.38754 6.81099,4.47494 14.76014,10.22409 17.66472,12.77585 2.90463,2.55176 5.89178,4.63959 6.63819,4.63959 1.87598,0 16.19331,-12.20735 17.9961,-15.34397 2.37703,-4.13572 2.07557,-4.53974 -21.20222,-28.41499 -17.19266,-17.63395 -24.1682,-25.62744 -23.14686,-26.5247 14.61382,9.10743 30.59015,26.81414 43.00828,40.36293 7.82589,8.63357 9.04004,8.90968 21.32113,4.8486 4.72551,-1.56259 13.19523,-3.12187 21.63851,-3.98363 7.63054,-0.77883 14.23295,-1.73163 14.67199,-2.11737 0.79608,-0.69934 -6.00434,-18.85615 -15.64864,-41.78112 C 359.79297,290.9972 359.51893,290 361.41496,290 c 1.77145,0 7.91205,12.24461 15.64633,31.19937 9.59501,23.51499 9.81342,23.8155 24.65886,33.92579 17.4907,11.91184 22.01096,25.68078 14.24151,43.38031 -3.07611,7.00764 -3.37075,8.44497 -2.03765,9.93947 0.85716,0.96093 5.91871,6.02822 11.24788,11.26064 9.99196,9.81058 12.07638,12.92931 14.19672,21.24136 1.83401,7.18965 -0.21214,13.90038 -7.6566,25.11081 -8.60917,12.96438 -16.55587,26.74832 -23.22911,40.292 -7.15344,14.51826 -14.85808,28.03733 -17.6102,30.90001 -1.19392,1.24189 -3.48068,2.46823 -5.08169,2.7252 -1.60101,0.25696 -17.61659,-1.49353 -35.5902,-3.88998 z m 37.36634,-6.04389 c 1.37237,-1.72135 1.71697,-6.20915 1.71697,-22.36097 0,-23.63011 0.91068,-22.08149 -14.55463,-24.75076 -12.08672,-2.08617 -35.40013,-4.7102 -41.84802,-4.7102 -8.48882,0 -9.31514,1.32207 -12.14739,19.43568 -2.60984,16.69098 -3.04524,24.22581 -1.52174,26.3334 1.06294,1.47047 58.37378,9.26054 63.40624,8.6186 1.77738,-0.22671 4.00423,-1.3813 4.94857,-2.56575 z m 13.94287,-21.59641 c 3.73863,-7.95604 1.70047,-12.55578 1.86152,-20.8495 0.13445,-6.53299 0.29669,-11.37385 0.33477,-14.78322 0.50102,-9.23467 -2.50364,-5.46161 -5.68943,-1.03451 -5.98959,6.72108 -3.70088,13.90137 -3.85617,22.15751 -0.0522,14.83104 -0.11885,-0.62609 -0.0522,14.83104 0.27814,10.41946 2.15194,8.42857 7.40151,-0.32132 z m 11.44376,-30.99273 c 2.16544,-3.79201 3.92532,-10.58646 4.90237,-18.9268 2.3906,-13.53561 -14.89256,-16.1543 -17.79861,-24.89129 1.29819,-1.14052 5.47698,0.71572 11.80314,5.24298 9.34175,6.68535 11.19022,9.86685 11.19022,19.26018 0,8.00816 1.4047,10.07539 3.52193,5.18306 3.14254,-12.5587 2.72324,-17.31725 -4.95192,-24.94365 -5.41719,-5.35643 -9.21896,-8.23499 -6.69461,-8.23499 8.04653,2.51446 13.12307,13.73689 18.71458,17.38981 2.40532,0 0.72806,-4.9023 -4.34034,-12.6861 -6.71848,-10.31786 -11.65619,-15.73889 -17.67115,-19.40091 l -4.67504,-2.84626 -10.87278,3.03545 c -5.98,1.66951 -16.28351,3.77818 -22.89667,4.68594 -6.61317,0.90775 -13.03246,2.12463 -14.26513,2.70421 -2.83483,1.33286 -7.08158,8.66633 -10.25604,17.71065 -2.80793,7.99997 -3.0809,10.88875 -1.02883,10.88875 0.78786,0 4.58661,-1.71511 8.44167,-3.81131 8.82457,-4.79845 15.10225,-4.97259 30.87882,-0.85668 34.59016,8.86556 14.09589,11.54542 21.73493,32.6281 1.45851,1.28133 2.65682,0.68235 4.26346,-2.13114 z m -24.29105,-4.09171 c 2.23226,-2.6724 5.51214,-7.30396 7.28862,-10.29233 l 3.22992,-5.43341 -2.72756,-1.96771 c -3.32232,-2.39677 -17.01098,-6.08798 -25.10519,-6.76976 -5.56844,-0.46901 -6.54139,-0.1682 -15.79279,4.8825 -10.08321,5.50485 -19.83268,13.27929 -19.83268,15.81504 0,2.79936 5.51201,4.38743 22.12304,6.37397 26.24074,3.13815 25.99953,3.15856 30.81664,-2.6083 z m 3.04254,-61.54504 c 9.02952,-2.98658 15.40974,-8.12734 19.79142,-15.94662 3.22241,-5.75048 3.62091,-7.36828 3.20208,-12.99942 -0.87663,-11.7865 -8.53725,-21.423 -21.46277,-26.99858 -6.52903,-2.81639 -7.6059,-2.95865 -22.14183,-2.92487 -12.3831,-0.9533 -23.74791,2.94497 -35.10542,7.81784 -8.76928,3.81517 -28.80737,21.31628 -33.21822,26.58152 -3.35569,4.00569 -1.95398,7.36111 4.1299,9.88617 41.6977,17.30634 43.15856,17.70705 62.58939,17.16845 12.2441,-0.33941 17.15514,-0.91074 22.21545,-2.58449 z m -83.11424,-5.87195 c 0.79775,-1.82638 -3.31862,-5.46678 -6.18156,-5.46678 -2.35977,0 -1.97697,2.75303 0.71118,5.11465 2.83372,2.4895 4.4902,2.59614 5.47038,0.35213 z m -89.10573,-3.06802 c 5.05701,-4.02057 0.50276,-8.53636 -8.60908,-8.53636 h -5.56276 v 5.11466 5.11465 h 6.02126 c 3.96885,0 6.74706,-0.57704 8.15058,-1.69295 z" />
<g transform="matrix(19.277108,0,0,21.691974,60.000005,60.000002)" style="fill:#cccccc">
<path transform="translate(0,0.17)" d="m 5.46,4.23 c 0,0 -0.25,0 -0.25,0 -0.1,1.02 -0.24,2.26 -2,2.26 0,0 -0.81,0 -0.81,0 -0.47,0 -0.49,-0.07 -0.49,-0.4 0,0 0,-5.31 0,-5.31 0,-0.34 0,-0.48 0.94,-0.48 0,0 0.33,0 0.33,0 0,0 0,-0.3 0,-0.3 C 2.82,0.03 1.92,0.03 1.51,0.03 1.12,0.03 0.34,0.03 0,0 c 0,0 0,0.3 0,0.3 0,0 0.23,0 0.23,0 0.77,0 0.79,0.11 0.79,0.47 0,0 0,5.25 0,5.25 0,0.36 -0.02,0.47 -0.79,0.47 0,0 -0.23,0 -0.23,0 0,0 0,0.31 0,0.31 0,0 5.19,0 5.19,0 0,0 0.27,-2.57 0.27,-2.57 z" style="fill:#cccccc" />
<path transform="translate(2.48)" d="M 2.81,0.16 C 2.77,0.04 2.75,0 2.62,0 2.49,0 2.46,0.04 2.42,0.16 2.42,0.16 0.81,4.24 0.81,4.24 0.74,4.41 0.62,4.72 0,4.72 c 0,0 0,0.25 0,0.25 0,0 1.55,0 1.55,0 0,0 0,-0.25 0,-0.25 -0.31,0 -0.5,-0.14 -0.5,-0.34 0,-0.05 0.01,-0.07 0.03,-0.14 0,0 0.34,-0.86 0.34,-0.86 0,0 1.98,0 1.98,0 0,0 0.4,1.02 0.4,1.02 0.02,0.04 0.04,0.09 0.04,0.12 0,0.2 -0.38,0.2 -0.57,0.2 0,0 0,0.25 0,0.25 0,0 1.97,0 1.97,0 0,0 0,-0.25 0,-0.25 0,0 -0.14,0 -0.14,0 -0.47,0 -0.52,-0.07 -0.59,-0.27 0,0 -1.7,-4.29 -1.7,-4.29 z m -0.4,0.71 c 0,0 0.89,2.26 0.89,2.26 0,0 -1.78,0 -1.78,0 0,0 0.89,-2.26 0.89,-2.26 z" style="fill:#cccccc" />
<path transform="translate(7.03,0.23)" d="M 6.27,0 C 6.27,0 0.18,0 0.18,0 0.18,0 0,2.24 0,2.24 c 0,0 0.24,0 0.24,0 0.14,-1.61 0.29,-1.94 1.8,-1.94 0.18,0 0.44,0 0.54,0.02 0.21,0.04 0.21,0.15 0.21,0.38 0,0 0,5.25 0,5.25 0,0.34 0,0.48 -1.05,0.48 0,0 -0.4,0 -0.4,0 0,0 0,0.31 0,0.31 0.41,-0.03 1.42,-0.03 1.88,-0.03 0.46,0 1.49,0 1.9,0.03 0,0 0,-0.31 0,-0.31 0,0 -0.4,0 -0.4,0 -1.05,0 -1.05,-0.14 -1.05,-0.48 0,0 0,-5.25 0,-5.25 0,-0.2 0,-0.34 0.18,-0.38 C 3.96,0.3 4.23,0.3 4.42,0.3 c 1.5,0 1.65,0.33 1.79,1.94 0,0 0.25,0 0.25,0 C 6.46,2.24 6.27,0 6.27,0 Z" style="fill:#cccccc" />
<path transform="translate(12.5,2.45)" d="m 6.16,4.2 c 0,0 -0.25,0 -0.25,0 -0.25,1.53 -0.48,2.26 -2.19,2.26 0,0 -1.32,0 -1.32,0 -0.47,0 -0.49,-0.07 -0.49,-0.4 0,0 0,-2.66 0,-2.66 0,0 0.89,0 0.89,0 0.97,0 1.08,0.32 1.08,1.17 0,0 0.25,0 0.25,0 0,0 0,-2.64 0,-2.64 0,0 -0.25,0 -0.25,0 0,0.85 -0.11,1.16 -1.08,1.16 0,0 -0.89,0 -0.89,0 0,0 0,-2.39 0,-2.39 0,-0.33 0.02,-0.4 0.49,-0.4 0,0 1.28,0 1.28,0 1.53,0 1.79,0.55 1.95,1.94 0,0 0.25,0 0.25,0 C 5.88,2.24 5.6,0 5.6,0 5.6,0 0,0 0,0 c 0,0 0,0.3 0,0.3 0,0 0.23,0 0.23,0 0.77,0 0.79,0.11 0.79,0.47 0,0 0,5.22 0,5.22 0,0.36 -0.02,0.47 -0.79,0.47 0,0 -0.23,0 -0.23,0 0,0 0,0.31 0,0.31 0,0 5.74,0 5.74,0 0,0 0.42,-2.57 0.42,-2.57 z" style="fill:#cccccc" />
<path transform="translate(17.91,0.17)" d="m 3.76,2.95 c 0,0 1.37,-2 1.37,-2 0.21,-0.32 0.55,-0.64 1.44,-0.65 0,0 0,-0.3 0,-0.3 0,0 -2.38,0 -2.38,0 0,0 0,0.3 0,0.3 0.4,0.01 0.62,0.23 0.62,0.46 0,0.1 -0.02,0.12 -0.09,0.23 0,0 -1.14,1.68 -1.14,1.68 C 3.58,2.67 2.3,0.75 2.3,0.75 2.28,0.72 2.23,0.64 2.23,0.6 c 0,-0.12 0.22,-0.29 0.64,-0.3 0,0 0,-0.3 0,-0.3 C 2.53,0.03 1.8,0.03 1.42,0.03 1.11,0.03 0.49,0.02 0.12,0 c 0,0 0,0.3 0,0.3 0,0 0.19,0 0.19,0 0.55,0 0.74,0.07 0.93,0.35 0,0 1.83,2.77 1.83,2.77 0,0 -1.63,2.41 -1.63,2.41 C 1.3,6.03 1,6.49 0,6.49 c 0,0 0,0.31 0,0.31 0,0 2.38,0 2.38,0 0,0 0,-0.31 0,-0.31 C 1.92,6.48 1.75,6.21 1.75,6.03 c 0,-0.09 0.03,-0.13 0.1,-0.24 0,0 1.41,-2.09 1.41,-2.09 0,0 1.58,2.38 1.58,2.38 0.02,0.04 0.05,0.08 0.05,0.11 0,0.12 -0.22,0.29 -0.65,0.3 0,0 0,0.31 0,0.31 0.35,-0.03 1.08,-0.03 1.45,-0.03 0.42,0 0.88,0.01 1.3,0.03 0,0 0,-0.31 0,-0.31 0,0 -0.19,0 -0.19,0 -0.52,0 -0.73,-0.05 -0.94,-0.36 0,0 -2.1,-3.18 -2.1,-3.18 z" style="fill:#cccccc" />
</g>
</svg>
