<?xml version="1.0" encoding="UTF-8" standalone="no"?>
<svg xmlns="http://www.w3.org/2000/svg" version="1.0" id="Roff" x="0px" y="0px" width="1000" height="1400" viewBox="0 0 999.99992 1400">
<rect style="fill:#00519e; stroke-width:1.80450237" x="-316.64734" id="rect2" height="0" width="0" y="1420.2946" />
<rect style="fill:#ffffff; fill-opacity:1; stroke:#0051aa; stroke-width:25.00499153; stroke-miterlimit:4; stroke-dasharray:none; stroke-opacity:1" id="rect8" height="1374.995" width="974.99493" y="12.502502" x="12.502533" />
<path style="fill:#0051aa; fill-opacity:1; stroke:#0051aa; stroke-width:4.983253; stroke-miterlimit:4; stroke-opacity:1" d="m 684.48645,666.15358 c -2.49877,-1.83632 -2.70641,-7.64835 -0.30771,-8.61444 0.94127,-0.37908 4.81228,-0.68925 8.60227,-0.68925 9.71669,0 17.48164,-1.95274 19.44135,-4.8892 1.41113,-2.11447 1.62121,-15.65013 1.62121,-104.4484 0,-64.37464 -0.39081,-102.78557 -1.0591,-104.09614 -1.59149,-3.12101 -6.93279,-4.58687 -16.71361,-4.58687 -10.24387,0 -13.60351,-1.66855 -13.60351,-6.75606 0,-1.88935 0.70745,-3.50563 1.71139,-3.90994 0.94127,-0.3791 40.51306,-0.68926 87.93729,-0.68926 94.29076,0 90.12164,-0.29763 91.4888,6.53068 1.69707,8.47593 9.31374,70.10063 8.82839,71.42819 -0.33508,0.91649 -2.23675,1.52782 -4.75263,1.52782 -4.79069,0 -7.76899,-2.64016 -7.78657,-6.90255 -0.0193,-4.81202 -5.06591,-28.62413 -7.47604,-35.27887 -2.8017,-7.73627 -9.55133,-16.0927 -15.63557,-19.35753 -10.08405,-5.41122 -13.25816,-5.78956 -52.79828,-6.29317 -36.84831,-0.46934 -37.55217,-0.436 -39.76125,1.88248 -2.20848,2.31788 -2.2489,3.25025 -2.2489,51.88242 v 49.52213 l 22.99122,-0.48398 c 23.9408,-0.50394 28.25404,-1.31671 33.65756,-6.34224 3.85886,-3.58893 6.1247,-11.00537 6.8364,-22.3766 0.73783,-11.78876 2.04431,-14.05858 7.1522,-12.42607 6.40569,2.04727 6.18033,0.31288 6.18033,47.56953 0,32.17507 -0.33385,43.66502 -1.29834,44.6772 -1.78164,1.86979 -7.94758,1.71632 -9.81575,-0.24444 -1.00655,-1.05637 -1.75421,-5.44938 -2.18216,-12.82164 -1.41202,-24.32531 -4.70555,-26.45016 -40.99712,-26.45016 h -22.52434 v 48.13394 c 0,45.02321 0.12848,48.30051 1.98808,50.71074 2.35463,3.05186 8.90517,4.28156 23.46723,4.40512 6.98547,0.0596 10.45206,0.58637 12.17182,1.85054 2.76049,2.02929 3.23799,7.05219 0.76508,8.04812 -0.90173,0.36313 -22.38927,0.73036 -47.75007,0.81595 -36.39515,0.12298 -46.53597,-0.15688 -48.12967,-1.32805 z M 451.4734,567.48509 c -34.74646,-3.30889 -62.93327,-22.60805 -73.72318,-50.47726 -5.47448,-14.14006 -5.89107,-17.67787 -6.86538,-58.3069 -0.99039,-41.29664 -1.56408,-45.91548 -7.16028,-57.64692 -8.60807,-18.04515 -23.54246,-30.20621 -44.57707,-36.29901 -7.68049,-2.22469 -11.61921,-2.44711 -50.79224,-2.86811 l -42.46607,-0.4564 v 81.31801 c 0,68.82542 0.24336,81.92924 1.58395,85.29676 2.48607,6.24455 6.79457,7.56951 27.13674,8.34501 14.01527,0.5343 17.92089,1.04748 20.26923,2.66336 3.16856,2.18031 4.39159,5.56596 3.83907,10.62752 -0.62182,5.69588 -3.6965,6.32856 -24.36779,5.01415 -23.80621,-1.51373 -79.12889,-1.49804 -99.83248,0.0282 -18.11751,1.33571 -22.43493,0.64443 -25.37361,-4.06268 -2.20618,-3.5338 -2.20373,-10.06327 0.008,-11.98671 1.16103,-1.01129 7.19776,-1.74524 18.66345,-2.2691 23.17246,-1.05872 28.37768,-2.87071 31.89031,-11.10122 1.9616,-4.59651 2.41334,-335.96945 0.46764,-343.10318 -2.1824,-8.00203 -5.84775,-9.35928 -27.53313,-10.19553 -15.37128,-0.59277 -17.9518,-0.96783 -20.52346,-2.98295 -5.41101,-4.23996 -5.87825,-13.2208 -0.79343,-15.24979 3.8385,-1.53168 172.17554,-1.44673 186.68961,0.0942 54.60674,5.79753 99.6211,32.11532 118.09112,69.04236 7.03488,14.0648 8.78599,21.13616 8.75933,35.37181 -0.0261,13.98698 -1.84137,21.52678 -8.20118,34.06573 -13.00633,25.64314 -39.42635,46.6018 -74.44562,59.05678 -5.65315,2.01059 -10.4749,3.84623 -10.71501,4.07919 -0.24018,0.23296 1.46387,1.24257 3.78672,2.24357 32.35699,13.94371 52.56212,35.64307 59.87083,64.29823 1.16271,4.55863 3.36682,18.50813 4.89807,30.9989 6.28637,51.28026 10.35476,73.64712 15.17558,83.43131 4.87877,9.90174 12.6042,15.05316 22.69187,15.13142 18.65055,0.14461 29.10758,-5.75992 31.80906,-36.01644 0.92482,-10.35824 4.55168,-21.8224 10.46479,-21.8224 11.20667,0 13.00053,11.36712 12.59591,18.94043 -1.6874,12.52291 -5.70482,24.02103 -11.50673,32.93291 -8.05489,12.37268 -18.10065,19.11658 -31.95918,21.45476 -6.93028,1.16931 -9.30441,1.22382 -17.85199,0.40982 z M 324.31467,343.03 c 26.92098,-6.12113 47.33537,-19.03858 57.04304,-36.09462 10.53471,-18.50897 13.47314,-48.94535 7.3267,-75.88983 -4.74546,-20.80285 -17.65156,-37.52733 -36.20839,-46.9209 -11.29073,-5.71543 -22.70894,-9.1163 -36.75758,-10.94813 -12.24865,-1.59713 -78.71292,-1.58181 -83.08867,0.0191 -6.9248,2.53355 -6.74059,0.0538 -6.74059,90.74693 v 81.96631 l 45.1709,-0.52045 c 36.14848,-0.4165 46.7856,-0.88758 53.25459,-2.35847 z m 229.98502,162.74533 c -20.7021,-3.41491 -40.7998,-13.06522 -58.0414,-27.86974 -27.54337,-23.65011 -45.35486,-65.35847 -45.29805,-106.07225 0.10386,-74.39526 55.47935,-134.23081 120.52793,-130.23539 44.7087,2.7461 83.77077,32.69936 102.31356,78.45521 4.71521,11.63513 7.9011,23.97356 9.82337,38.04423 1.59156,11.64999 0.78646,34.84632 -1.6133,46.48177 -10.4466,50.65133 -45.60432,89.73679 -89.62395,99.63652 -9.67277,2.17533 -29.44691,2.98506 -38.08816,1.55965 z m 29.6469,-18.08573 c 14.47783,-5.13969 28.94965,-18.01635 37.68457,-33.53076 5.33704,-9.47934 11.31949,-27.6863 13.99163,-42.58216 1.54949,-8.63765 1.92636,-16.55805 1.89105,-39.74334 -0.0477,-31.37575 -1.33222,-43.04657 -6.6165,-60.11855 -11.91516,-38.49436 -43.69756,-61.06089 -74.3197,-52.7694 -24.4302,6.61494 -45.8324,31.02131 -53.188,60.65384 -6.83373,27.53012 -7.78738,74.66688 -2.09372,103.48998 7.02985,35.58751 27.71187,61.0581 54.18866,66.73517 7.71861,1.655 20.48364,0.69758 28.46201,-2.13478 z M 686.10593,331.17397 c -2.49875,-1.83632 -1.77478,-7.64841 0.62391,-8.61446 0.94129,-0.37907 2.26118,-0.68925 6.05117,-0.68925 9.71669,0 17.48164,-1.95277 19.44135,-4.88924 1.41113,-2.11443 1.62121,-15.65008 1.62121,-104.4484 0,-64.37463 -0.39081,-102.78554 -1.0591,-104.0961 -1.59149,-3.12101 -6.93279,-4.58689 -16.71361,-4.58689 -10.24387,0 -13.60351,-1.66852 -13.60351,-6.756053 0,-1.889343 0.70745,-3.505605 1.71139,-3.909943 0.94127,-0.379087 40.51306,-0.689255 87.93729,-0.689255 94.29076,0 90.12164,-0.297606 91.4888,6.530681 1.69707,8.47593 9.31374,70.10065 8.82839,71.42819 -0.33508,0.9165 -2.23675,1.52783 -4.75263,1.52783 -4.79069,0 -7.76899,-2.64016 -7.78657,-6.90257 -0.0193,-4.81202 -5.06591,-28.62411 -7.47604,-35.27887 -2.8017,-7.73625 -9.55133,-16.09267 -15.63557,-19.35751 -10.08405,-5.41122 -13.25816,-5.78956 -52.79828,-6.29317 -36.84831,-0.46933 -37.55217,-0.43601 -39.76125,1.88248 -2.20848,2.31787 -2.2489,3.25024 -2.2489,51.8824 v 49.52213 l 22.99122,-0.48395 c 23.9408,-0.50396 28.25404,-1.31671 33.65756,-6.34228 3.85886,-3.58892 6.1247,-11.00534 6.8364,-22.37659 0.73783,-11.78874 2.04431,-14.05858 7.1522,-12.42605 6.40569,2.04729 6.18033,0.31286 6.18033,47.5695 0,32.1751 -0.33385,43.66502 -1.29834,44.67722 -1.78164,1.86983 -7.94758,1.71633 -9.81575,-0.24438 -1.00655,-1.05641 -1.75421,-5.44945 -2.18216,-12.82171 -1.41202,-24.32527 -4.70555,-26.45016 -40.99712,-26.45016 h -22.52434 v 48.13399 c 0,45.02317 0.12848,48.3005 1.98808,50.71072 2.35463,3.05187 8.90517,4.28151 23.46723,4.40509 6.98547,0.0593 10.45206,0.58634 12.17182,1.85057 2.76049,2.0293 3.23799,7.05216 0.76508,8.04811 -0.90173,0.36317 -22.38927,0.73037 -47.75007,0.816 -36.39515,0.1229 -44.9165,-0.15692 -46.51019,-1.32808 z" id="path12" />
<rect style="fill:#0051aa; fill-opacity:1; stroke-width:2.36066413" id="rect12" height="20" width="800" y="725" x="100" />
<g id="g4541" transform="matrix(1.717797,0,0,1.8084229,-27.78044,173.282)" style="fill:#0051aa; fill-opacity:1">
<path d="m 87.181,376.956 c 0,-17.67 -0.935,-19 -7.945,-20.521 l -3.895,-0.949 c -1.246,-1.141 -1.402,-5.32 0.312,-6.46 7.478,0.38 15.268,0.57 22.746,0.57 7.634,0 15.268,-0.19 22.745,-0.57 1.247,1.14 1.247,5.32 0,6.46 l -3.739,0.76 c -7.011,1.71 -7.945,3.04 -7.945,20.71 v 43.891 c 0,22.23 2.025,46.741 25.706,46.741 19.942,0 26.017,-21.28 26.017,-47.311 v -22.99 c 0,-15.391 -0.623,-29.83 -2.337,-34.771 -1.402,-3.99 -4.829,-5.13 -9.036,-6.08 l -4.207,-0.95 c -1.246,-1.52 -0.935,-5.32 0,-6.46 8.413,0.38 14.489,0.57 20.876,0.57 5.764,0 11.528,-0.19 17.449,-0.57 0.935,1.14 1.246,4.94 0,6.46 l -2.804,0.761 c -4.051,1.14 -7.011,2.28 -8.413,6.27 -1.714,4.94 -2.337,19.38 -2.337,34.771 v 21.28 c 0,17.86 -1.402,34.201 -9.971,45.791 -6.855,8.93 -18.228,13.68 -30.847,13.68 -11.84,0 -22.434,-2.279 -30.846,-10.64 -8.102,-8.17 -11.529,-22.229 -11.529,-42.939 v -47.501" id="path20" style="fill:#0051aa; fill-opacity:1" />
<path d="m 220.544,478.037 c -14.333,0 -23.213,-4.939 -26.484,-7.22 -2.96,-4.18 -4.986,-17.86 -4.986,-30.78 1.091,-2.471 4.674,-2.66 5.92,-0.57 3.116,12.351 13.554,29.83 26.796,29.83 11.528,0 16.825,-9.689 16.825,-19.19 0,-15.39 -11.84,-24.51 -21.188,-30.21 -11.217,-6.841 -23.369,-18.24 -23.525,-37.051 0,-21.471 13.554,-36.291 36.144,-36.291 5.141,0 11.528,0.76 17.76,3.04 2.026,0.76 3.427,1.14 5.297,1.52 1.246,4.18 2.805,14.44 2.805,27.17 -0.779,2.28 -4.674,2.471 -6.076,0.57 -2.648,-9.69 -9.348,-23.561 -20.564,-23.561 -10.282,0 -15.891,8.171 -15.891,17.67 0,8.74 6.388,16.721 14.177,21.661 l 10.282,6.65 c 9.659,6.27 21.967,17.29 21.967,38.19 0,23.372 -15.735,38.572 -39.259,38.572" id="path22" style="fill:#0051aa; fill-opacity:1" />
<path d="m 304.343,398.996 c 0,5.32 0.156,5.7 4.362,5.7 h 10.749 c 8.102,0 9.815,-1.33 11.529,-10.45 l 0.778,-4.75 c 1.091,-1.52 4.985,-1.52 5.765,0.19 -0.312,6.08 -0.468,12.92 -0.468,20.14 0,7.22 0.156,14.061 0.468,20.141 -0.779,1.71 -4.675,1.899 -5.765,0.189 l -0.778,-4.75 c -1.714,-9.12 -3.428,-10.64 -11.529,-10.64 h -10.749 c -4.207,0 -4.362,0.189 -4.362,5.89 v 22.61 c 0,8.74 0.623,14.82 2.492,18.051 2.025,3.42 4.985,4.94 16.358,4.94 13.555,0 18.852,-0.57 27.42,-22.041 1.246,-2.09 5.141,-1.33 5.764,0.95 -0.623,9.88 -4.361,25.271 -6.543,30.4 -8.257,-0.38 -23.213,-0.57 -35.987,-0.57 h -20.253 c -7.478,0 -15.112,0.19 -26.796,0.57 -1.246,-1.141 -1.246,-5.7 0,-6.65 l 7.322,-1.33 c 7.011,-1.14 7.945,-2.47 7.945,-19.95 v -70.87 c 0,-17.29 -0.935,-18.621 -7.945,-20.141 l -3.895,-0.949 c -1.402,-1.141 -1.246,-5.51 0.312,-6.65 7.322,0.38 14.956,0.57 22.434,0.57 H 326 c 9.971,0 18.851,-0.19 20.876,-0.57 0.156,3.04 1.246,16.721 2.025,29.45 -0.624,2.09 -4.207,2.471 -5.765,0.761 -1.713,-6.65 -3.895,-12.351 -5.92,-15.011 -2.96,-3.61 -7.634,-5.89 -15.268,-5.89 h -12.463 c -5.142,0 -5.142,0.38 -5.142,7.41 v 33.25" id="path24" style="fill:#0051aa; fill-opacity:1" />
<path d="m 374.419,380.376 c 0,-19 -0.311,-21.091 -6.854,-22.23 l -4.207,-0.761 c -1.558,-0.949 -1.558,-5.699 0.312,-6.649 11.685,-0.95 23.836,-1.71 38.637,-1.71 13.242,0 24.615,2.47 30.535,6.84 9.036,6.46 13.709,15.96 13.709,28.12 0,16.91 -9.347,24.131 -16.514,28.501 -1.558,0.949 -1.558,2.09 -0.778,4.18 10.282,25.461 16.67,39.711 24.147,47.501 4.051,3.99 8.102,5.13 10.438,5.32 1.401,0.95 1.401,3.8 0.623,4.939 -2.492,1.33 -7.478,1.71 -12.308,1.71 -14.333,0 -23.369,-6.27 -30.224,-19.949 -4.985,-10.071 -8.569,-19.38 -12.152,-29.451 -1.869,-5.13 -4.362,-6.65 -8.257,-6.65 -5.452,0 -5.764,0.38 -5.764,4.181 v 23.37 c 0,17.48 0.935,18.81 7.945,20.33 l 4.206,0.95 c 1.091,0.949 1.091,5.51 0,6.649 -8.257,-0.38 -15.423,-0.57 -22.901,-0.57 -7.789,0 -14.644,0.19 -22.745,0.57 -1.246,-1.14 -1.246,-5.7 0,-6.649 l 4.207,-0.95 c 7.01,-1.52 7.944,-2.85 7.944,-20.33 v -67.262 z m 21.344,24.131 c 0,6.65 0.468,7.22 9.66,7.22 5.607,0 8.88,-1.71 11.84,-5.32 2.648,-3.229 5.608,-9.311 5.608,-20.52 0,-17.101 -8.257,-28.12 -20.409,-28.12 -6.388,0 -6.388,0.569 -6.699,9.689 v 37.051" id="path26" style="fill:#0051aa; fill-opacity:1" />
<path d="m 495.137,478.037 c -14.333,0 -23.214,-4.939 -26.485,-7.22 -2.96,-4.18 -4.985,-17.86 -4.985,-30.78 1.091,-2.471 4.675,-2.66 5.921,-0.57 3.115,12.351 13.554,29.83 26.796,29.83 11.528,0 16.825,-9.689 16.825,-19.19 0,-15.39 -11.84,-24.51 -21.188,-30.21 -11.217,-6.841 -23.369,-18.24 -23.524,-37.051 0,-21.471 13.554,-36.291 36.144,-36.291 5.141,0 11.528,0.76 17.76,3.04 2.026,0.76 3.428,1.14 5.297,1.52 1.246,4.18 2.805,14.44 2.805,27.17 -0.779,2.28 -4.674,2.471 -6.075,0.57 -2.648,-9.69 -9.348,-23.561 -20.564,-23.561 -10.282,0 -15.892,8.171 -15.892,17.67 0,8.74 6.388,16.721 14.177,21.661 l 10.282,6.65 c 9.659,6.27 21.967,17.29 21.967,38.19 -0.002,23.372 -15.737,38.572 -39.261,38.572" id="path28" style="fill:#0051aa; fill-opacity:1" />
<path d="m 164.678,598.527 c 0,7.979 0.285,11.78 2.992,12.54 0.57,0.76 0.428,3.989 -0.427,4.56 -2.422,0.57 -6.128,1.14 -9.975,2.85 -4.988,2.09 -17.243,4.561 -25.223,4.561 -9.69,0 -17.955,-1.33 -28.073,-6.65 C 87.3,607.457 75.9,586.366 75.9,559.006 c 0,-23.75 7.98,-44.65 25.081,-57.38 9.69,-7.03 21.233,-10.07 33.346,-10.07 15.818,0 23.656,4.561 28.216,4.561 0.428,5.699 0.57,19 1.995,30.59 -0.57,2.09 -4.417,2.28 -5.415,0.38 -4.56,-17.86 -13.538,-26.79 -26.79,-26.79 -22.658,0 -33.631,25.08 -33.631,55.101 0,27.17 6.983,43.32 16.245,51.681 6.84,6.079 14.25,7.22 19.523,7.22 8.123,0 9.833,-2.09 9.833,-14.44 V 582.45 c 0,-10.261 -0.855,-11.4 -7.695,-12.73 l -6.27,-1.14 c -1.568,-1.141 -1.568,-5.511 0,-6.65 10.118,0.38 17.1,0.57 24.083,0.57 6.84,0 13.823,-0.19 18.668,-0.57 1.14,1.14 1.14,5.51 0,6.65 l -3.277,0.76 c -4.275,1.14 -5.13,2.85 -5.13,13.11 v 16.079" id="path30" style="fill:#0051aa; fill-opacity:1" />
<path d="m 186.749,525.376 c 0,-19 -0.285,-21.091 -6.27,-22.229 l -3.847,-0.761 c -1.425,-0.949 -1.425,-5.7 0.285,-6.649 10.688,-0.95 21.803,-1.71 35.341,-1.71 12.113,0 22.516,2.47 27.931,6.84 8.265,6.46 12.54,15.96 12.54,28.12 0,16.91 -8.55,24.13 -15.105,28.501 -1.425,0.949 -1.425,2.09 -0.712,4.18 9.405,25.461 15.248,39.711 22.088,47.501 3.705,3.99 7.41,5.13 9.548,5.32 1.283,0.949 1.283,3.8 0.57,4.94 -2.28,1.33 -6.84,1.71 -11.258,1.71 -13.11,0 -21.375,-6.271 -27.645,-19.95 -4.56,-10.07 -7.838,-19.38 -11.115,-29.45 -1.71,-5.13 -3.99,-6.65 -7.553,-6.65 -4.987,0 -5.272,0.38 -5.272,4.181 v 23.37 c 0,17.48 0.855,18.811 7.268,20.331 l 3.847,0.949 c 0.998,0.95 0.998,5.511 0,6.65 -7.553,-0.38 -14.107,-0.569 -20.948,-0.569 -7.125,0 -13.395,0.189 -20.806,0.569 -1.14,-1.14 -1.14,-5.699 0,-6.65 l 3.848,-0.949 c 6.413,-1.521 7.268,-2.851 7.268,-20.331 v -67.26 z m 19.522,24.13 c 0,6.65 0.428,7.221 8.835,7.221 5.13,0 8.123,-1.711 10.83,-5.32 2.423,-3.23 5.13,-9.311 5.13,-20.521 0,-17.1 -7.553,-28.12 -18.668,-28.12 -5.842,0 -5.842,0.57 -6.127,9.69 v 37.05" id="path32" style="fill:#0051aa; fill-opacity:1" />
<path d="m 362.426,556.727 c 0,41.421 -20.805,66.311 -51.443,66.311 -28.643,0 -49.448,-25.08 -49.448,-64.791 0,-37.62 21.09,-66.69 50.873,-66.69 29.64,-0.001 50.018,26.599 50.018,65.17 z m -51.158,-56.431 c -17.528,0 -26.933,21.851 -26.933,53.581 0,23.18 6.128,60.42 29.355,60.42 18.668,0 25.936,-24.32 25.936,-55.1 0,-32.491 -10.687,-58.901 -28.358,-58.901" id="path34" style="fill:#0051aa; fill-opacity:1" />
<path d="m 372.235,521.956 c 0,-17.67 -0.855,-19 -7.268,-20.52 l -3.563,-0.95 c -1.14,-1.14 -1.282,-5.32 0.285,-6.46 6.84,0.38 13.965,0.569 20.805,0.569 6.983,0 13.966,-0.189 20.806,-0.569 1.14,1.14 1.14,5.32 0,6.46 l -3.42,0.76 c -6.413,1.71 -7.269,3.041 -7.269,20.711 v 43.891 c 0,22.229 1.853,46.74 23.514,46.74 18.239,0 23.797,-21.28 23.797,-47.311 v -22.99 c 0,-15.39 -0.569,-29.83 -2.137,-34.771 -1.282,-3.99 -4.418,-5.13 -8.265,-6.08 l -3.849,-0.949 c -1.14,-1.521 -0.854,-5.32 0,-6.461 7.695,0.38 13.253,0.57 19.096,0.57 5.272,0 10.545,-0.19 15.96,-0.57 0.854,1.141 1.14,4.94 0,6.461 l -2.565,0.76 c -3.705,1.14 -6.412,2.28 -7.694,6.27 -1.568,4.94 -2.139,19.381 -2.139,34.771 v 21.279 c 0,17.86 -1.282,34.201 -9.119,45.791 -6.271,8.93 -16.673,13.681 -28.216,13.681 -10.83,0 -20.52,-2.28 -28.215,-10.641 -7.41,-8.17 -10.545,-22.229 -10.545,-42.94 l 0.001,-47.502" id="path36" style="fill:#0051aa; fill-opacity:1" />
<path d="m 474.122,525.376 c 0,-19.19 -0.285,-21.28 -6.271,-22.42 l -4.418,-0.761 c -1.282,-0.949 -1.282,-5.13 0.285,-6.46 9.405,-0.949 20.521,-1.71 32.918,-1.71 12.113,0 20.093,1.9 26.078,4.94 8.692,4.369 17.385,14.439 17.385,32.87 0,31.16 -23.513,35.72 -31.065,35.72 -1.71,0 -2.992,0 -4.561,-0.189 -1.14,-0.95 -1.425,-3.99 -0.427,-5.13 11.828,-4.94 14.25,-16.15 14.25,-30.211 0,-14.061 -5.415,-29.261 -18.24,-29.261 -5.272,0 -5.558,2.09 -5.558,9.69 v 80.181 c 0,17.67 0.854,19.001 7.268,20.521 l 4.561,0.949 c 1.567,0.95 1.567,5.32 0,6.461 -7.98,-0.38 -14.963,-0.57 -21.804,-0.57 -6.84,0 -13.68,0.19 -21.375,0.57 -1.567,-1.141 -1.853,-5.511 -0.285,-6.461 l 3.99,-0.949 c 6.412,-1.52 7.268,-2.851 7.268,-20.521 l 0.001,-67.259" id="path38" style="fill:#0051aa; fill-opacity:1" />
</g>
</svg>
