<?xml version="1.0" encoding="UTF-8" standalone="no"?>
<svg xmlns="http://www.w3.org/2000/svg" width="600" height="600" version="1.1" id="Vim">
<rect ry="20.930244" rx="20.930244" y="6.976593" x="6.976593" height="586.04681" width="586.04681" style="opacity:1; fill:#00ae00; stroke:#005500; stroke-width:13.95318413; stroke-linecap:round; stroke-linejoin:round; stroke-miterlimit:4; stroke-dasharray:none" />
<path d="m 547.67378,278.86411 c 11.73222,11.70928 10.97515,31.31806 -1.69741,43.96587 L 323.37564,545.99595 c -12.67256,12.64781 -32.31972,13.40338 -44.05191,1.69409 L 52.326208,321.13588 C 40.594014,309.4266 41.351062,289.81782 54.023623,277.17001 L 277.62632,54.004051 c 12.67256,-12.647808 32.31971,-13.403381 44.0519,-1.694101 71.68986,73.50921 151.14021,151.84501 225.99556,226.55416 z" style="opacity:0.93000034; fill:#008000; fill-opacity:1; fill-rule:evenodd; stroke:none; stroke-width:1.554793" />
<g transform="translate(53.992399,293)">
<path style="fill:#ffffff; stroke-width:1.24908125; stroke-linecap:butt; stroke-linejoin:miter; stroke-miterlimit:4; stroke-dasharray:none" d="m 305.3704,-193 -5.12428,5.5793 v 29.28254 l 4.48845,4.88695 h 13.34719 L 161.21083,39.661969 V -153.00688 h 26.07037 l 5.34871,-5.82363 v -29.52686 l -4.93728,-4.15393 H 50.496048 l -4.488447,4.88698 v 29.97482 l 4.563258,4.96843 h 23.863529 v 354.7941 L 78.922807,207 h 27.117643 l 318.45949,-359.70678 17.07904,0.24833 4.42862,-4.69909 v -30.78068 L 441.39763,-193 h -30.71154 z" />
<path style="fill:#ffffff; stroke-width:9.93237305; stroke-linecap:butt; stroke-linejoin:miter; stroke-miterlimit:10; stroke-dasharray:none" d="m 285.12298,36.80041 c -0.20583,0.06807 -0.39699,0.219496 -0.55485,0.439507 l -6.90265,7.12952 c -0.15669,0.22528 -0.27356,0.51142 -0.33908,0.830153 l -2.96126,14.356648 c -0.15789,0.69641 -0.0501,1.474532 0.27744,2.002153 l 4.77488,6.348206 c 0.23164,0.352596 0.54192,0.545704 0.86313,0.537166 h 16.18367 c 0.3212,0.0085 0.63149,-0.184566 0.86314,-0.537166 l 6.01441,-6.738909 c 0.14545,-0.23091 0.25151,-0.51654 0.30825,-0.830122 l 3.03875,-15.577482 c 0.12482,-0.676355 -0.993,-1.406703 -1.30826,-1.904466 l -3.37989,-5.518071 c -0.23164,-0.352586 -0.54193,-0.545682 -0.86312,-0.537137 h -15.76796 c -0.082,-0.01324 -0.16462,-0.01324 -0.2466,0 z M 261.9153,81.25622 c -0.4535,0.154103 -0.8122,0.703373 -0.9248,1.416135 l -2.00367,12.598796 c -0.19045,1.21019 0.38408,2.383766 1.17138,2.392766 h 9.52523 L 246.07072,204.46054 c -0.26258,1.24034 0.31481,2.52575 1.14059,2.53927 h 34.37098 c 0.53013,0.012 1.00407,-0.5215 1.1714,-1.31846 l 2.25029,-11.47563 c 0.24022,-1.24368 -0.35041,-2.49936 -1.1714,-2.49044 h -7.76812 L 299.43057,83.795491 c 0.26258,-1.240331 -0.31479,-2.525742 -1.14058,-2.539271 H 262.1619 c -0.082,-0.01324 -0.16461,-0.01324 -0.2466,0 z m 109.37066,0.390685 c -0.26424,0.08658 -0.50281,0.309893 -0.67815,0.634804 l -7.15165,12.794107 h -11.3748 l -7.58317,-12.452289 c -0.22659,-0.370482 -0.5375,-0.581558 -0.86312,-0.585976 h -27.1577 c -0.51078,0.0018 -0.96642,0.509027 -1.14061,1.269661 l -2.4969,11.817435 c -0.26257,1.240306 0.31478,2.525699 1.14055,2.53927 h 7.27494 L 298.62909,203.28858 c -0.26259,1.24032 0.31478,2.52574 1.14055,2.53929 h 28.91479 c 0.51077,-0.002 0.9664,-0.50903 1.14058,-1.26966 l 2.21946,-10.30369 c 0.26256,-1.24033 -0.3148,-2.52571 -1.14058,-2.53924 h -5.05547 l 14.4266,-71.93026 h 26.10962 l -16.46107,83.55237 c -0.24023,1.24368 0.35039,2.49939 1.17139,2.49048 h 27.89752 c 0.48421,-0.006 0.92008,-0.4662 1.10975,-1.17198 l 2.49689,-9.47352 c 0.31348,-1.2518 -0.25973,-2.61387 -1.10972,-2.63695 h -5.05548 l 14.67317,-73.15107 h 24.84578 l -16.7077,83.94304 c -0.24024,1.24369 0.35039,2.49941 1.1714,2.49048 h 30.64105 c 0.50296,0.006 0.95628,-0.47943 1.14055,-1.22081 l 2.49691,-10.30366 c 0.28975,-1.25595 -0.29645,-2.58612 -1.14056,-2.58812 h -6.07271 l 18.46475,-94.979158 c 0.12344,-0.598635 0.0544,-1.255049 -0.18488,-1.757958 l -5.73361,-12.208112 c -0.23754,-0.476838 -0.60312,-0.748306 -0.98644,-0.732501 h -21.9173 c -0.33632,-0.0089 -0.65994,0.203233 -0.89396,0.585976 l -6.90501,12.012818 h -12.08384 l -7.1516,-12.403477 c -0.23402,-0.382731 -0.55764,-0.594856 -0.89395,-0.585963 h -17.66331 c -0.082,-0.01324 -0.16463,-0.01324 -0.24663,0 z" />
</g>
<g>
<circle style="fill:#ffffff; stroke-width:11.92511845; stroke-linecap:square; stroke-linejoin:miter; stroke-miterlimit:4; stroke-dasharray:11.92511805, 23.85023611; stroke-opacity:0.98924734; paint-order:markers fill stroke" cx="65" cy="535" r="25" />
<circle style="fill:#ffffff; stroke-width:11.92511845; stroke-linecap:square; stroke-linejoin:miter; stroke-miterlimit:4; stroke-dasharray:11.92511805, 23.85023611; stroke-opacity:0.98924734; paint-order:markers fill stroke" cx="535" cy="65" r="25" />
<circle style="fill:#ffffff; stroke-width:11.92511845; stroke-linecap:square; stroke-linejoin:miter; stroke-miterlimit:4; stroke-dasharray:11.92511805, 23.85023611; stroke-opacity:0.98924734; paint-order:markers fill stroke" cx="65" cy="65" r="25" />
<circle style="fill:#ffffff; stroke-width:11.92511845; stroke-linecap:square; stroke-linejoin:miter; stroke-miterlimit:4; stroke-dasharray:11.92511805, 23.85023611; stroke-opacity:0.98924734; paint-order:markers fill stroke" cx="535" cy="535" r="25" />
</g>
</svg>
